<svg width="887" height="552" viewBox="0 0 887 552" fill="none" xmlns="http://www.w3.org/2000/svg">
<path d="M73 0C64.168 0 57 7.168 57 16C57 24.832 64.168 32 73 32C81.832 32 89 24.832 89 16C89 7.168 81.832 0 73 0ZM73 23.2C69.016 23.2 65.8 19.984 65.8 16C65.8 12.016 69.016 8.8 73 8.8C76.984 8.8 80.2 12.016 80.2 16C80.2 19.984 76.984 23.2 73 23.2ZM73 14.4C72.12 14.4 71.4 15.12 71.4 16C71.4 16.88 72.12 17.6 73 17.6C73.88 17.6 74.6 16.88 74.6 16C74.6 15.12 73.88 14.4 73 14.4Z" fill="#242424" fill-opacity="0.32"/>
<path d="M529 0C520.168 0 513 7.168 513 16C513 24.832 520.168 32 529 32C537.832 32 545 24.832 545 16C545 7.168 537.832 0 529 0ZM529 23.2C525.016 23.2 521.8 19.984 521.8 16C521.8 12.016 525.016 8.8 529 8.8C532.984 8.8 536.2 12.016 536.2 16C536.2 19.984 532.984 23.2 529 23.2ZM529 14.4C528.12 14.4 527.4 15.12 527.4 16C527.4 16.88 528.12 17.6 529 17.6C529.88 17.6 530.6 16.88 530.6 16C530.6 15.12 529.88 14.4 529 14.4Z" fill="#242424" fill-opacity="0.32"/>
<path d="M301 0C292.168 0 285 7.168 285 16C285 24.832 292.168 32 301 32C309.832 32 317 24.832 317 16C317 7.168 309.832 0 301 0ZM301 23.2C297.016 23.2 293.8 19.984 293.8 16C293.8 12.016 297.016 8.8 301 8.8C304.984 8.8 308.2 12.016 308.2 16C308.2 19.984 304.984 23.2 301 23.2ZM301 14.4C300.12 14.4 299.4 15.12 299.4 16C299.4 16.88 300.12 17.6 301 17.6C301.88 17.6 302.6 16.88 302.6 16C302.6 15.12 301.88 14.4 301 14.4Z" fill="#242424" fill-opacity="0.32"/>
<path d="M757 0C748.168 0 741 7.168 741 16C741 24.832 748.168 32 757 32C765.832 32 773 24.832 773 16C773 7.168 765.832 0 757 0ZM757 23.2C753.016 23.2 749.8 19.984 749.8 16C749.8 12.016 753.016 8.8 757 8.8C760.984 8.8 764.2 12.016 764.2 16C764.2 19.984 760.984 23.2 757 23.2ZM757 14.4C756.12 14.4 755.4 15.12 755.4 16C755.4 16.88 756.12 17.6 757 17.6C757.88 17.6 758.6 16.88 758.6 16C758.6 15.12 757.88 14.4 757 14.4Z" fill="#242424" fill-opacity="0.32"/>
<path d="M187 0C178.168 0 171 7.168 171 16C171 24.832 178.168 32 187 32C195.832 32 203 24.832 203 16C203 7.168 195.832 0 187 0ZM187 23.2C183.016 23.2 179.8 19.984 179.8 16C179.8 12.016 183.016 8.8 187 8.8C190.984 8.8 194.2 12.016 194.2 16C194.2 19.984 190.984 23.2 187 23.2ZM187 14.4C186.12 14.4 185.4 15.12 185.4 16C185.4 16.88 186.12 17.6 187 17.6C187.88 17.6 188.6 16.88 188.6 16C188.6 15.12 187.88 14.4 187 14.4Z" fill="#242424" fill-opacity="0.24"/>
<path d="M643 0C634.168 0 627 7.168 627 16C627 24.832 634.168 32 643 32C651.832 32 659 24.832 659 16C659 7.168 651.832 0 643 0ZM643 23.2C639.016 23.2 635.8 19.984 635.8 16C635.8 12.016 639.016 8.8 643 8.8C646.984 8.8 650.2 12.016 650.2 16C650.2 19.984 646.984 23.2 643 23.2ZM643 14.4C642.12 14.4 641.4 15.12 641.4 16C641.4 16.88 642.12 17.6 643 17.6C643.88 17.6 644.6 16.88 644.6 16C644.6 15.12 643.88 14.4 643 14.4Z" fill="#242424" fill-opacity="0.24"/>
<path d="M415 0C406.168 0 399 7.168 399 16C399 24.832 406.168 32 415 32C423.832 32 431 24.832 431 16C431 7.168 423.832 0 415 0ZM415 23.2C411.016 23.2 407.8 19.984 407.8 16C407.8 12.016 411.016 8.8 415 8.8C418.984 8.8 422.2 12.016 422.2 16C422.2 19.984 418.984 23.2 415 23.2ZM415 14.4C414.12 14.4 413.4 15.12 413.4 16C413.4 16.88 414.12 17.6 415 17.6C415.88 17.6 416.6 16.88 416.6 16C416.6 15.12 415.88 14.4 415 14.4Z" fill="#242424" fill-opacity="0.24"/>
<path d="M871 0C862.168 0 855 7.168 855 16C855 24.832 862.168 32 871 32C879.832 32 887 24.832 887 16C887 7.168 879.832 0 871 0ZM871 23.2C867.016 23.2 863.8 19.984 863.8 16C863.8 12.016 867.016 8.8 871 8.8C874.984 8.8 878.2 12.016 878.2 16C878.2 19.984 874.984 23.2 871 23.2ZM871 14.4C870.12 14.4 869.4 15.12 869.4 16C869.4 16.88 870.12 17.6 871 17.6C871.88 17.6 872.6 16.88 872.6 16C872.6 15.12 871.88 14.4 871 14.4Z" fill="#242424" fill-opacity="0.24"/>
<path d="M16 82C7.168 82 0 89.168 0 98C0 106.832 7.168 114 16 114C24.832 114 32 106.832 32 98C32 89.168 24.832 82 16 82ZM16 105.2C12.016 105.2 8.8 101.984 8.8 98C8.8 94.016 12.016 90.8 16 90.8C19.984 90.8 23.2 94.016 23.2 98C23.2 101.984 19.984 105.2 16 105.2ZM16 96.4C15.12 96.4 14.4 97.12 14.4 98C14.4 98.88 15.12 99.6 16 99.6C16.88 99.6 17.6 98.88 17.6 98C17.6 97.12 16.88 96.4 16 96.4Z" fill="#242424" fill-opacity="0.23"/>
<path d="M472 82C463.168 82 456 89.168 456 98C456 106.832 463.168 114 472 114C480.832 114 488 106.832 488 98C488 89.168 480.832 82 472 82ZM472 105.2C468.016 105.2 464.8 101.984 464.8 98C464.8 94.016 468.016 90.8 472 90.8C475.984 90.8 479.2 94.016 479.2 98C479.2 101.984 475.984 105.2 472 105.2ZM472 96.4C471.12 96.4 470.4 97.12 470.4 98C470.4 98.88 471.12 99.6 472 99.6C472.88 99.6 473.6 98.88 473.6 98C473.6 97.12 472.88 96.4 472 96.4Z" fill="#242424" fill-opacity="0.23"/>
<path d="M244 82C235.168 82 228 89.168 228 98C228 106.832 235.168 114 244 114C252.832 114 260 106.832 260 98C260 89.168 252.832 82 244 82ZM244 105.2C240.016 105.2 236.8 101.984 236.8 98C236.8 94.016 240.016 90.8 244 90.8C247.984 90.8 251.2 94.016 251.2 98C251.2 101.984 247.984 105.2 244 105.2ZM244 96.4C243.12 96.4 242.4 97.12 242.4 98C242.4 98.88 243.12 99.6 244 99.6C244.88 99.6 245.6 98.88 245.6 98C245.6 97.12 244.88 96.4 244 96.4Z" fill="#242424" fill-opacity="0.23"/>
<path d="M700 82C691.168 82 684 89.168 684 98C684 106.832 691.168 114 700 114C708.832 114 716 106.832 716 98C716 89.168 708.832 82 700 82ZM700 105.2C696.016 105.2 692.8 101.984 692.8 98C692.8 94.016 696.016 90.8 700 90.8C703.984 90.8 707.2 94.016 707.2 98C707.2 101.984 703.984 105.2 700 105.2ZM700 96.4C699.12 96.4 698.4 97.12 698.4 98C698.4 98.88 699.12 99.6 700 99.6C700.88 99.6 701.6 98.88 701.6 98C701.6 97.12 700.88 96.4 700 96.4Z" fill="#242424" fill-opacity="0.23"/>
<path d="M130 82C121.168 82 114 89.168 114 98C114 106.832 121.168 114 130 114C138.832 114 146 106.832 146 98C146 89.168 138.832 82 130 82ZM130 105.2C126.016 105.2 122.8 101.984 122.8 98C122.8 94.016 126.016 90.8 130 90.8C133.984 90.8 137.2 94.016 137.2 98C137.2 101.984 133.984 105.2 130 105.2ZM130 96.4C129.12 96.4 128.4 97.12 128.4 98C128.4 98.88 129.12 99.6 130 99.6C130.88 99.6 131.6 98.88 131.6 98C131.6 97.12 130.88 96.4 130 96.4Z" fill="#242424" fill-opacity="0.32"/>
<path d="M586 82C577.168 82 570 89.168 570 98C570 106.832 577.168 114 586 114C594.832 114 602 106.832 602 98C602 89.168 594.832 82 586 82ZM586 105.2C582.016 105.2 578.8 101.984 578.8 98C578.8 94.016 582.016 90.8 586 90.8C589.984 90.8 593.2 94.016 593.2 98C593.2 101.984 589.984 105.2 586 105.2ZM586 96.4C585.12 96.4 584.4 97.12 584.4 98C584.4 98.88 585.12 99.6 586 99.6C586.88 99.6 587.6 98.88 587.6 98C587.6 97.12 586.88 96.4 586 96.4Z" fill="#242424" fill-opacity="0.32"/>
<path d="M358 82C349.168 82 342 89.168 342 98C342 106.832 349.168 114 358 114C366.832 114 374 106.832 374 98C374 89.168 366.832 82 358 82ZM358 105.2C354.016 105.2 350.8 101.984 350.8 98C350.8 94.016 354.016 90.8 358 90.8C361.984 90.8 365.2 94.016 365.2 98C365.2 101.984 361.984 105.2 358 105.2ZM358 96.4C357.12 96.4 356.4 97.12 356.4 98C356.4 98.88 357.12 99.6 358 99.6C358.88 99.6 359.6 98.88 359.6 98C359.6 97.12 358.88 96.4 358 96.4Z" fill="#242424" fill-opacity="0.32"/>
<path d="M814 82C805.168 82 798 89.168 798 98C798 106.832 805.168 114 814 114C822.832 114 830 106.832 830 98C830 89.168 822.832 82 814 82ZM814 105.2C810.016 105.2 806.8 101.984 806.8 98C806.8 94.016 810.016 90.8 814 90.8C817.984 90.8 821.2 94.016 821.2 98C821.2 101.984 817.984 105.2 814 105.2ZM814 96.4C813.12 96.4 812.4 97.12 812.4 98C812.4 98.88 813.12 99.6 814 99.6C814.88 99.6 815.6 98.88 815.6 98C815.6 97.12 814.88 96.4 814 96.4Z" fill="#242424" fill-opacity="0.32"/>
<path d="M73 292C64.168 292 57 299.168 57 308C57 316.832 64.168 324 73 324C81.832 324 89 316.832 89 308C89 299.168 81.832 292 73 292ZM73 315.2C69.016 315.2 65.8 311.984 65.8 308C65.8 304.016 69.016 300.8 73 300.8C76.984 300.8 80.2 304.016 80.2 308C80.2 311.984 76.984 315.2 73 315.2ZM73 306.4C72.12 306.4 71.4 307.12 71.4 308C71.4 308.88 72.12 309.6 73 309.6C73.88 309.6 74.6 308.88 74.6 308C74.6 307.12 73.88 306.4 73 306.4Z" fill="#242424" fill-opacity="0.32"/>
<path d="M529 292C520.168 292 513 299.168 513 308C513 316.832 520.168 324 529 324C537.832 324 545 316.832 545 308C545 299.168 537.832 292 529 292ZM529 315.2C525.016 315.2 521.8 311.984 521.8 308C521.8 304.016 525.016 300.8 529 300.8C532.984 300.8 536.2 304.016 536.2 308C536.2 311.984 532.984 315.2 529 315.2ZM529 306.4C528.12 306.4 527.4 307.12 527.4 308C527.4 308.88 528.12 309.6 529 309.6C529.88 309.6 530.6 308.88 530.6 308C530.6 307.12 529.88 306.4 529 306.4Z" fill="#242424" fill-opacity="0.32"/>
<path d="M301 292C292.168 292 285 299.168 285 308C285 316.832 292.168 324 301 324C309.832 324 317 316.832 317 308C317 299.168 309.832 292 301 292ZM301 315.2C297.016 315.2 293.8 311.984 293.8 308C293.8 304.016 297.016 300.8 301 300.8C304.984 300.8 308.2 304.016 308.2 308C308.2 311.984 304.984 315.2 301 315.2ZM301 306.4C300.12 306.4 299.4 307.12 299.4 308C299.4 308.88 300.12 309.6 301 309.6C301.88 309.6 302.6 308.88 302.6 308C302.6 307.12 301.88 306.4 301 306.4Z" fill="#242424" fill-opacity="0.32"/>
<path d="M757 292C748.168 292 741 299.168 741 308C741 316.832 748.168 324 757 324C765.832 324 773 316.832 773 308C773 299.168 765.832 292 757 292ZM757 315.2C753.016 315.2 749.8 311.984 749.8 308C749.8 304.016 753.016 300.8 757 300.8C760.984 300.8 764.2 304.016 764.2 308C764.2 311.984 760.984 315.2 757 315.2ZM757 306.4C756.12 306.4 755.4 307.12 755.4 308C755.4 308.88 756.12 309.6 757 309.6C757.88 309.6 758.6 308.88 758.6 308C758.6 307.12 757.88 306.4 757 306.4Z" fill="#242424" fill-opacity="0.32"/>
<path d="M187 292C178.168 292 171 299.168 171 308C171 316.832 178.168 324 187 324C195.832 324 203 316.832 203 308C203 299.168 195.832 292 187 292ZM187 315.2C183.016 315.2 179.8 311.984 179.8 308C179.8 304.016 183.016 300.8 187 300.8C190.984 300.8 194.2 304.016 194.2 308C194.2 311.984 190.984 315.2 187 315.2ZM187 306.4C186.12 306.4 185.4 307.12 185.4 308C185.4 308.88 186.12 309.6 187 309.6C187.88 309.6 188.6 308.88 188.6 308C188.6 307.12 187.88 306.4 187 306.4Z" fill="#242424" fill-opacity="0.24"/>
<path d="M643 292C634.168 292 627 299.168 627 308C627 316.832 634.168 324 643 324C651.832 324 659 316.832 659 308C659 299.168 651.832 292 643 292ZM643 315.2C639.016 315.2 635.8 311.984 635.8 308C635.8 304.016 639.016 300.8 643 300.8C646.984 300.8 650.2 304.016 650.2 308C650.2 311.984 646.984 315.2 643 315.2ZM643 306.4C642.12 306.4 641.4 307.12 641.4 308C641.4 308.88 642.12 309.6 643 309.6C643.88 309.6 644.6 308.88 644.6 308C644.6 307.12 643.88 306.4 643 306.4Z" fill="#242424" fill-opacity="0.24"/>
<path d="M415 292C406.168 292 399 299.168 399 308C399 316.832 406.168 324 415 324C423.832 324 431 316.832 431 308C431 299.168 423.832 292 415 292ZM415 315.2C411.016 315.2 407.8 311.984 407.8 308C407.8 304.016 411.016 300.8 415 300.8C418.984 300.8 422.2 304.016 422.2 308C422.2 311.984 418.984 315.2 415 315.2ZM415 306.4C414.12 306.4 413.4 307.12 413.4 308C413.4 308.88 414.12 309.6 415 309.6C415.88 309.6 416.6 308.88 416.6 308C416.6 307.12 415.88 306.4 415 306.4Z" fill="#242424" fill-opacity="0.24"/>
<path d="M871 292C862.168 292 855 299.168 855 308C855 316.832 862.168 324 871 324C879.832 324 887 316.832 887 308C887 299.168 879.832 292 871 292ZM871 315.2C867.016 315.2 863.8 311.984 863.8 308C863.8 304.016 867.016 300.8 871 300.8C874.984 300.8 878.2 304.016 878.2 308C878.2 311.984 874.984 315.2 871 315.2ZM871 306.4C870.12 306.4 869.4 307.12 869.4 308C869.4 308.88 870.12 309.6 871 309.6C871.88 309.6 872.6 308.88 872.6 308C872.6 307.12 871.88 306.4 871 306.4Z" fill="#242424" fill-opacity="0.24"/>
<path d="M16 374C7.168 374 0 381.168 0 390C0 398.832 7.168 406 16 406C24.832 406 32 398.832 32 390C32 381.168 24.832 374 16 374ZM16 397.2C12.016 397.2 8.8 393.984 8.8 390C8.8 386.016 12.016 382.8 16 382.8C19.984 382.8 23.2 386.016 23.2 390C23.2 393.984 19.984 397.2 16 397.2ZM16 388.4C15.12 388.4 14.4 389.12 14.4 390C14.4 390.88 15.12 391.6 16 391.6C16.88 391.6 17.6 390.88 17.6 390C17.6 389.12 16.88 388.4 16 388.4Z" fill="#242424" fill-opacity="0.23"/>
<path d="M472 374C463.168 374 456 381.168 456 390C456 398.832 463.168 406 472 406C480.832 406 488 398.832 488 390C488 381.168 480.832 374 472 374ZM472 397.2C468.016 397.2 464.8 393.984 464.8 390C464.8 386.016 468.016 382.8 472 382.8C475.984 382.8 479.2 386.016 479.2 390C479.2 393.984 475.984 397.2 472 397.2ZM472 388.4C471.12 388.4 470.4 389.12 470.4 390C470.4 390.88 471.12 391.6 472 391.6C472.88 391.6 473.6 390.88 473.6 390C473.6 389.12 472.88 388.4 472 388.4Z" fill="#242424" fill-opacity="0.23"/>
<path d="M244 374C235.168 374 228 381.168 228 390C228 398.832 235.168 406 244 406C252.832 406 260 398.832 260 390C260 381.168 252.832 374 244 374ZM244 397.2C240.016 397.2 236.8 393.984 236.8 390C236.8 386.016 240.016 382.8 244 382.8C247.984 382.8 251.2 386.016 251.2 390C251.2 393.984 247.984 397.2 244 397.2ZM244 388.4C243.12 388.4 242.4 389.12 242.4 390C242.4 390.88 243.12 391.6 244 391.6C244.88 391.6 245.6 390.88 245.6 390C245.6 389.12 244.88 388.4 244 388.4Z" fill="#242424" fill-opacity="0.23"/>
<path d="M700 374C691.168 374 684 381.168 684 390C684 398.832 691.168 406 700 406C708.832 406 716 398.832 716 390C716 381.168 708.832 374 700 374ZM700 397.2C696.016 397.2 692.8 393.984 692.8 390C692.8 386.016 696.016 382.8 700 382.8C703.984 382.8 707.2 386.016 707.2 390C707.2 393.984 703.984 397.2 700 397.2ZM700 388.4C699.12 388.4 698.4 389.12 698.4 390C698.4 390.88 699.12 391.6 700 391.6C700.88 391.6 701.6 390.88 701.6 390C701.6 389.12 700.88 388.4 700 388.4Z" fill="#242424" fill-opacity="0.23"/>
<path d="M130 374C121.168 374 114 381.168 114 390C114 398.832 121.168 406 130 406C138.832 406 146 398.832 146 390C146 381.168 138.832 374 130 374ZM130 397.2C126.016 397.2 122.8 393.984 122.8 390C122.8 386.016 126.016 382.8 130 382.8C133.984 382.8 137.2 386.016 137.2 390C137.2 393.984 133.984 397.2 130 397.2ZM130 388.4C129.12 388.4 128.4 389.12 128.4 390C128.4 390.88 129.12 391.6 130 391.6C130.88 391.6 131.6 390.88 131.6 390C131.6 389.12 130.88 388.4 130 388.4Z" fill="#242424" fill-opacity="0.32"/>
<path d="M586 374C577.168 374 570 381.168 570 390C570 398.832 577.168 406 586 406C594.832 406 602 398.832 602 390C602 381.168 594.832 374 586 374ZM586 397.2C582.016 397.2 578.8 393.984 578.8 390C578.8 386.016 582.016 382.8 586 382.8C589.984 382.8 593.2 386.016 593.2 390C593.2 393.984 589.984 397.2 586 397.2ZM586 388.4C585.12 388.4 584.4 389.12 584.4 390C584.4 390.88 585.12 391.6 586 391.6C586.88 391.6 587.6 390.88 587.6 390C587.6 389.12 586.88 388.4 586 388.4Z" fill="#242424" fill-opacity="0.32"/>
<path d="M358 374C349.168 374 342 381.168 342 390C342 398.832 349.168 406 358 406C366.832 406 374 398.832 374 390C374 381.168 366.832 374 358 374ZM358 397.2C354.016 397.2 350.8 393.984 350.8 390C350.8 386.016 354.016 382.8 358 382.8C361.984 382.8 365.2 386.016 365.2 390C365.2 393.984 361.984 397.2 358 397.2ZM358 388.4C357.12 388.4 356.4 389.12 356.4 390C356.4 390.88 357.12 391.6 358 391.6C358.88 391.6 359.6 390.88 359.6 390C359.6 389.12 358.88 388.4 358 388.4Z" fill="#242424" fill-opacity="0.32"/>
<path d="M814 374C805.168 374 798 381.168 798 390C798 398.832 805.168 406 814 406C822.832 406 830 398.832 830 390C830 381.168 822.832 374 814 374ZM814 397.2C810.016 397.2 806.8 393.984 806.8 390C806.8 386.016 810.016 382.8 814 382.8C817.984 382.8 821.2 386.016 821.2 390C821.2 393.984 817.984 397.2 814 397.2ZM814 388.4C813.12 388.4 812.4 389.12 812.4 390C812.4 390.88 813.12 391.6 814 391.6C814.88 391.6 815.6 390.88 815.6 390C815.6 389.12 814.88 388.4 814 388.4Z" fill="#242424" fill-opacity="0.32"/>
<path d="M73 146C64.168 146 57 153.168 57 162C57 170.832 64.168 178 73 178C81.832 178 89 170.832 89 162C89 153.168 81.832 146 73 146ZM73 169.2C69.016 169.2 65.8 165.984 65.8 162C65.8 158.016 69.016 154.8 73 154.8C76.984 154.8 80.2 158.016 80.2 162C80.2 165.984 76.984 169.2 73 169.2ZM73 160.4C72.12 160.4 71.4 161.12 71.4 162C71.4 162.88 72.12 163.6 73 163.6C73.88 163.6 74.6 162.88 74.6 162C74.6 161.12 73.88 160.4 73 160.4Z" fill="#242424" fill-opacity="0.32"/>
<path d="M529 146C520.168 146 513 153.168 513 162C513 170.832 520.168 178 529 178C537.832 178 545 170.832 545 162C545 153.168 537.832 146 529 146ZM529 169.2C525.016 169.2 521.8 165.984 521.8 162C521.8 158.016 525.016 154.8 529 154.8C532.984 154.8 536.2 158.016 536.2 162C536.2 165.984 532.984 169.2 529 169.2ZM529 160.4C528.12 160.4 527.4 161.12 527.4 162C527.4 162.88 528.12 163.6 529 163.6C529.88 163.6 530.6 162.88 530.6 162C530.6 161.12 529.88 160.4 529 160.4Z" fill="#242424" fill-opacity="0.32"/>
<path d="M301 146C292.168 146 285 153.168 285 162C285 170.832 292.168 178 301 178C309.832 178 317 170.832 317 162C317 153.168 309.832 146 301 146ZM301 169.2C297.016 169.2 293.8 165.984 293.8 162C293.8 158.016 297.016 154.8 301 154.8C304.984 154.8 308.2 158.016 308.2 162C308.2 165.984 304.984 169.2 301 169.2ZM301 160.4C300.12 160.4 299.4 161.12 299.4 162C299.4 162.88 300.12 163.6 301 163.6C301.88 163.6 302.6 162.88 302.6 162C302.6 161.12 301.88 160.4 301 160.4Z" fill="#242424" fill-opacity="0.32"/>
<path d="M757 146C748.168 146 741 153.168 741 162C741 170.832 748.168 178 757 178C765.832 178 773 170.832 773 162C773 153.168 765.832 146 757 146ZM757 169.2C753.016 169.2 749.8 165.984 749.8 162C749.8 158.016 753.016 154.8 757 154.8C760.984 154.8 764.2 158.016 764.2 162C764.2 165.984 760.984 169.2 757 169.2ZM757 160.4C756.12 160.4 755.4 161.12 755.4 162C755.4 162.88 756.12 163.6 757 163.6C757.88 163.6 758.6 162.88 758.6 162C758.6 161.12 757.88 160.4 757 160.4Z" fill="#242424" fill-opacity="0.32"/>
<path d="M187 146C178.168 146 171 153.168 171 162C171 170.832 178.168 178 187 178C195.832 178 203 170.832 203 162C203 153.168 195.832 146 187 146ZM187 169.2C183.016 169.2 179.8 165.984 179.8 162C179.8 158.016 183.016 154.8 187 154.8C190.984 154.8 194.2 158.016 194.2 162C194.2 165.984 190.984 169.2 187 169.2ZM187 160.4C186.12 160.4 185.4 161.12 185.4 162C185.4 162.88 186.12 163.6 187 163.6C187.88 163.6 188.6 162.88 188.6 162C188.6 161.12 187.88 160.4 187 160.4Z" fill="#242424" fill-opacity="0.24"/>
<path d="M643 146C634.168 146 627 153.168 627 162C627 170.832 634.168 178 643 178C651.832 178 659 170.832 659 162C659 153.168 651.832 146 643 146ZM643 169.2C639.016 169.2 635.8 165.984 635.8 162C635.8 158.016 639.016 154.8 643 154.8C646.984 154.8 650.2 158.016 650.2 162C650.2 165.984 646.984 169.2 643 169.2ZM643 160.4C642.12 160.4 641.4 161.12 641.4 162C641.4 162.88 642.12 163.6 643 163.6C643.88 163.6 644.6 162.88 644.6 162C644.6 161.12 643.88 160.4 643 160.4Z" fill="#242424" fill-opacity="0.24"/>
<path d="M415 146C406.168 146 399 153.168 399 162C399 170.832 406.168 178 415 178C423.832 178 431 170.832 431 162C431 153.168 423.832 146 415 146ZM415 169.2C411.016 169.2 407.8 165.984 407.8 162C407.8 158.016 411.016 154.8 415 154.8C418.984 154.8 422.2 158.016 422.2 162C422.2 165.984 418.984 169.2 415 169.2ZM415 160.4C414.12 160.4 413.4 161.12 413.4 162C413.4 162.88 414.12 163.6 415 163.6C415.88 163.6 416.6 162.88 416.6 162C416.6 161.12 415.88 160.4 415 160.4Z" fill="#242424" fill-opacity="0.24"/>
<path d="M871 146C862.168 146 855 153.168 855 162C855 170.832 862.168 178 871 178C879.832 178 887 170.832 887 162C887 153.168 879.832 146 871 146ZM871 169.2C867.016 169.2 863.8 165.984 863.8 162C863.8 158.016 867.016 154.8 871 154.8C874.984 154.8 878.2 158.016 878.2 162C878.2 165.984 874.984 169.2 871 169.2ZM871 160.4C870.12 160.4 869.4 161.12 869.4 162C869.4 162.88 870.12 163.6 871 163.6C871.88 163.6 872.6 162.88 872.6 162C872.6 161.12 871.88 160.4 871 160.4Z" fill="#242424" fill-opacity="0.24"/>
<path d="M16 228C7.168 228 0 235.168 0 244C0 252.832 7.168 260 16 260C24.832 260 32 252.832 32 244C32 235.168 24.832 228 16 228ZM16 251.2C12.016 251.2 8.8 247.984 8.8 244C8.8 240.016 12.016 236.8 16 236.8C19.984 236.8 23.2 240.016 23.2 244C23.2 247.984 19.984 251.2 16 251.2ZM16 242.4C15.12 242.4 14.4 243.12 14.4 244C14.4 244.88 15.12 245.6 16 245.6C16.88 245.6 17.6 244.88 17.6 244C17.6 243.12 16.88 242.4 16 242.4Z" fill="#242424" fill-opacity="0.23"/>
<path d="M472 228C463.168 228 456 235.168 456 244C456 252.832 463.168 260 472 260C480.832 260 488 252.832 488 244C488 235.168 480.832 228 472 228ZM472 251.2C468.016 251.2 464.8 247.984 464.8 244C464.8 240.016 468.016 236.8 472 236.8C475.984 236.8 479.2 240.016 479.2 244C479.2 247.984 475.984 251.2 472 251.2ZM472 242.4C471.12 242.4 470.4 243.12 470.4 244C470.4 244.88 471.12 245.6 472 245.6C472.88 245.6 473.6 244.88 473.6 244C473.6 243.12 472.88 242.4 472 242.4Z" fill="#242424" fill-opacity="0.23"/>
<path d="M244 228C235.168 228 228 235.168 228 244C228 252.832 235.168 260 244 260C252.832 260 260 252.832 260 244C260 235.168 252.832 228 244 228ZM244 251.2C240.016 251.2 236.8 247.984 236.8 244C236.8 240.016 240.016 236.8 244 236.8C247.984 236.8 251.2 240.016 251.2 244C251.2 247.984 247.984 251.2 244 251.2ZM244 242.4C243.12 242.4 242.4 243.12 242.4 244C242.4 244.88 243.12 245.6 244 245.6C244.88 245.6 245.6 244.88 245.6 244C245.6 243.12 244.88 242.4 244 242.4Z" fill="#242424" fill-opacity="0.23"/>
<path d="M700 228C691.168 228 684 235.168 684 244C684 252.832 691.168 260 700 260C708.832 260 716 252.832 716 244C716 235.168 708.832 228 700 228ZM700 251.2C696.016 251.2 692.8 247.984 692.8 244C692.8 240.016 696.016 236.8 700 236.8C703.984 236.8 707.2 240.016 707.2 244C707.2 247.984 703.984 251.2 700 251.2ZM700 242.4C699.12 242.4 698.4 243.12 698.4 244C698.4 244.88 699.12 245.6 700 245.6C700.88 245.6 701.6 244.88 701.6 244C701.6 243.12 700.88 242.4 700 242.4Z" fill="#242424" fill-opacity="0.23"/>
<path d="M130 228C121.168 228 114 235.168 114 244C114 252.832 121.168 260 130 260C138.832 260 146 252.832 146 244C146 235.168 138.832 228 130 228ZM130 251.2C126.016 251.2 122.8 247.984 122.8 244C122.8 240.016 126.016 236.8 130 236.8C133.984 236.8 137.2 240.016 137.2 244C137.2 247.984 133.984 251.2 130 251.2ZM130 242.4C129.12 242.4 128.4 243.12 128.4 244C128.4 244.88 129.12 245.6 130 245.6C130.88 245.6 131.6 244.88 131.6 244C131.6 243.12 130.88 242.4 130 242.4Z" fill="#242424" fill-opacity="0.32"/>
<path d="M586 228C577.168 228 570 235.168 570 244C570 252.832 577.168 260 586 260C594.832 260 602 252.832 602 244C602 235.168 594.832 228 586 228ZM586 251.2C582.016 251.2 578.8 247.984 578.8 244C578.8 240.016 582.016 236.8 586 236.8C589.984 236.8 593.2 240.016 593.2 244C593.2 247.984 589.984 251.2 586 251.2ZM586 242.4C585.12 242.4 584.4 243.12 584.4 244C584.4 244.88 585.12 245.6 586 245.6C586.88 245.6 587.6 244.88 587.6 244C587.6 243.12 586.88 242.4 586 242.4Z" fill="#242424" fill-opacity="0.32"/>
<path d="M358 228C349.168 228 342 235.168 342 244C342 252.832 349.168 260 358 260C366.832 260 374 252.832 374 244C374 235.168 366.832 228 358 228ZM358 251.2C354.016 251.2 350.8 247.984 350.8 244C350.8 240.016 354.016 236.8 358 236.8C361.984 236.8 365.2 240.016 365.2 244C365.2 247.984 361.984 251.2 358 251.2ZM358 242.4C357.12 242.4 356.4 243.12 356.4 244C356.4 244.88 357.12 245.6 358 245.6C358.88 245.6 359.6 244.88 359.6 244C359.6 243.12 358.88 242.4 358 242.4Z" fill="#242424" fill-opacity="0.32"/>
<path d="M814 228C805.168 228 798 235.168 798 244C798 252.832 805.168 260 814 260C822.832 260 830 252.832 830 244C830 235.168 822.832 228 814 228ZM814 251.2C810.016 251.2 806.8 247.984 806.8 244C806.8 240.016 810.016 236.8 814 236.8C817.984 236.8 821.2 240.016 821.2 244C821.2 247.984 817.984 251.2 814 251.2ZM814 242.4C813.12 242.4 812.4 243.12 812.4 244C812.4 244.88 813.12 245.6 814 245.6C814.88 245.6 815.6 244.88 815.6 244C815.6 243.12 814.88 242.4 814 242.4Z" fill="#242424" fill-opacity="0.32"/>
<path d="M73 438C64.168 438 57 445.168 57 454C57 462.832 64.168 470 73 470C81.832 470 89 462.832 89 454C89 445.168 81.832 438 73 438ZM73 461.2C69.016 461.2 65.8 457.984 65.8 454C65.8 450.016 69.016 446.8 73 446.8C76.984 446.8 80.2 450.016 80.2 454C80.2 457.984 76.984 461.2 73 461.2ZM73 452.4C72.12 452.4 71.4 453.12 71.4 454C71.4 454.88 72.12 455.6 73 455.6C73.88 455.6 74.6 454.88 74.6 454C74.6 453.12 73.88 452.4 73 452.4Z" fill="#242424" fill-opacity="0.32"/>
<path d="M529 438C520.168 438 513 445.168 513 454C513 462.832 520.168 470 529 470C537.832 470 545 462.832 545 454C545 445.168 537.832 438 529 438ZM529 461.2C525.016 461.2 521.8 457.984 521.8 454C521.8 450.016 525.016 446.8 529 446.8C532.984 446.8 536.2 450.016 536.2 454C536.2 457.984 532.984 461.2 529 461.2ZM529 452.4C528.12 452.4 527.4 453.12 527.4 454C527.4 454.88 528.12 455.6 529 455.6C529.88 455.6 530.6 454.88 530.6 454C530.6 453.12 529.88 452.4 529 452.4Z" fill="#242424" fill-opacity="0.32"/>
<path d="M301 438C292.168 438 285 445.168 285 454C285 462.832 292.168 470 301 470C309.832 470 317 462.832 317 454C317 445.168 309.832 438 301 438ZM301 461.2C297.016 461.2 293.8 457.984 293.8 454C293.8 450.016 297.016 446.8 301 446.8C304.984 446.8 308.2 450.016 308.2 454C308.2 457.984 304.984 461.2 301 461.2ZM301 452.4C300.12 452.4 299.4 453.12 299.4 454C299.4 454.88 300.12 455.6 301 455.6C301.88 455.6 302.6 454.88 302.6 454C302.6 453.12 301.88 452.4 301 452.4Z" fill="#242424" fill-opacity="0.32"/>
<path d="M757 438C748.168 438 741 445.168 741 454C741 462.832 748.168 470 757 470C765.832 470 773 462.832 773 454C773 445.168 765.832 438 757 438ZM757 461.2C753.016 461.2 749.8 457.984 749.8 454C749.8 450.016 753.016 446.8 757 446.8C760.984 446.8 764.2 450.016 764.2 454C764.2 457.984 760.984 461.2 757 461.2ZM757 452.4C756.12 452.4 755.4 453.12 755.4 454C755.4 454.88 756.12 455.6 757 455.6C757.88 455.6 758.6 454.88 758.6 454C758.6 453.12 757.88 452.4 757 452.4Z" fill="#242424" fill-opacity="0.32"/>
<path d="M187 438C178.168 438 171 445.168 171 454C171 462.832 178.168 470 187 470C195.832 470 203 462.832 203 454C203 445.168 195.832 438 187 438ZM187 461.2C183.016 461.2 179.8 457.984 179.8 454C179.8 450.016 183.016 446.8 187 446.8C190.984 446.8 194.2 450.016 194.2 454C194.2 457.984 190.984 461.2 187 461.2ZM187 452.4C186.12 452.4 185.4 453.12 185.4 454C185.4 454.88 186.12 455.6 187 455.6C187.88 455.6 188.6 454.88 188.6 454C188.6 453.12 187.88 452.4 187 452.4Z" fill="#242424" fill-opacity="0.24"/>
<path d="M643 438C634.168 438 627 445.168 627 454C627 462.832 634.168 470 643 470C651.832 470 659 462.832 659 454C659 445.168 651.832 438 643 438ZM643 461.2C639.016 461.2 635.8 457.984 635.8 454C635.8 450.016 639.016 446.8 643 446.8C646.984 446.8 650.2 450.016 650.2 454C650.2 457.984 646.984 461.2 643 461.2ZM643 452.4C642.12 452.4 641.4 453.12 641.4 454C641.4 454.88 642.12 455.6 643 455.6C643.88 455.6 644.6 454.88 644.6 454C644.6 453.12 643.88 452.4 643 452.4Z" fill="#242424" fill-opacity="0.24"/>
<path d="M415 438C406.168 438 399 445.168 399 454C399 462.832 406.168 470 415 470C423.832 470 431 462.832 431 454C431 445.168 423.832 438 415 438ZM415 461.2C411.016 461.2 407.8 457.984 407.8 454C407.8 450.016 411.016 446.8 415 446.8C418.984 446.8 422.2 450.016 422.2 454C422.2 457.984 418.984 461.2 415 461.2ZM415 452.4C414.12 452.4 413.4 453.12 413.4 454C413.4 454.88 414.12 455.6 415 455.6C415.88 455.6 416.6 454.88 416.6 454C416.6 453.12 415.88 452.4 415 452.4Z" fill="#242424" fill-opacity="0.24"/>
<path d="M871 438C862.168 438 855 445.168 855 454C855 462.832 862.168 470 871 470C879.832 470 887 462.832 887 454C887 445.168 879.832 438 871 438ZM871 461.2C867.016 461.2 863.8 457.984 863.8 454C863.8 450.016 867.016 446.8 871 446.8C874.984 446.8 878.2 450.016 878.2 454C878.2 457.984 874.984 461.2 871 461.2ZM871 452.4C870.12 452.4 869.4 453.12 869.4 454C869.4 454.88 870.12 455.6 871 455.6C871.88 455.6 872.6 454.88 872.6 454C872.6 453.12 871.88 452.4 871 452.4Z" fill="#242424" fill-opacity="0.24"/>
<path d="M16 520C7.168 520 0 527.168 0 536C0 544.832 7.168 552 16 552C24.832 552 32 544.832 32 536C32 527.168 24.832 520 16 520ZM16 543.2C12.016 543.2 8.8 539.984 8.8 536C8.8 532.016 12.016 528.8 16 528.8C19.984 528.8 23.2 532.016 23.2 536C23.2 539.984 19.984 543.2 16 543.2ZM16 534.4C15.12 534.4 14.4 535.12 14.4 536C14.4 536.88 15.12 537.6 16 537.6C16.88 537.6 17.6 536.88 17.6 536C17.6 535.12 16.88 534.4 16 534.4Z" fill="#242424" fill-opacity="0.23"/>
<path d="M472 520C463.168 520 456 527.168 456 536C456 544.832 463.168 552 472 552C480.832 552 488 544.832 488 536C488 527.168 480.832 520 472 520ZM472 543.2C468.016 543.2 464.8 539.984 464.8 536C464.8 532.016 468.016 528.8 472 528.8C475.984 528.8 479.2 532.016 479.2 536C479.2 539.984 475.984 543.2 472 543.2ZM472 534.4C471.12 534.4 470.4 535.12 470.4 536C470.4 536.88 471.12 537.6 472 537.6C472.88 537.6 473.6 536.88 473.6 536C473.6 535.12 472.88 534.4 472 534.4Z" fill="#242424" fill-opacity="0.23"/>
<path d="M244 520C235.168 520 228 527.168 228 536C228 544.832 235.168 552 244 552C252.832 552 260 544.832 260 536C260 527.168 252.832 520 244 520ZM244 543.2C240.016 543.2 236.8 539.984 236.8 536C236.8 532.016 240.016 528.8 244 528.8C247.984 528.8 251.2 532.016 251.2 536C251.2 539.984 247.984 543.2 244 543.2ZM244 534.4C243.12 534.4 242.4 535.12 242.4 536C242.4 536.88 243.12 537.6 244 537.6C244.88 537.6 245.6 536.88 245.6 536C245.6 535.12 244.88 534.4 244 534.4Z" fill="#242424" fill-opacity="0.23"/>
<path d="M700 520C691.168 520 684 527.168 684 536C684 544.832 691.168 552 700 552C708.832 552 716 544.832 716 536C716 527.168 708.832 520 700 520ZM700 543.2C696.016 543.2 692.8 539.984 692.8 536C692.8 532.016 696.016 528.8 700 528.8C703.984 528.8 707.2 532.016 707.2 536C707.2 539.984 703.984 543.2 700 543.2ZM700 534.4C699.12 534.4 698.4 535.12 698.4 536C698.4 536.88 699.12 537.6 700 537.6C700.88 537.6 701.6 536.88 701.6 536C701.6 535.12 700.88 534.4 700 534.4Z" fill="#242424" fill-opacity="0.23"/>
<path d="M130 520C121.168 520 114 527.168 114 536C114 544.832 121.168 552 130 552C138.832 552 146 544.832 146 536C146 527.168 138.832 520 130 520ZM130 543.2C126.016 543.2 122.8 539.984 122.8 536C122.8 532.016 126.016 528.8 130 528.8C133.984 528.8 137.2 532.016 137.2 536C137.2 539.984 133.984 543.2 130 543.2ZM130 534.4C129.12 534.4 128.4 535.12 128.4 536C128.4 536.88 129.12 537.6 130 537.6C130.88 537.6 131.6 536.88 131.6 536C131.6 535.12 130.88 534.4 130 534.4Z" fill="#242424" fill-opacity="0.32"/>
<path d="M586 520C577.168 520 570 527.168 570 536C570 544.832 577.168 552 586 552C594.832 552 602 544.832 602 536C602 527.168 594.832 520 586 520ZM586 543.2C582.016 543.2 578.8 539.984 578.8 536C578.8 532.016 582.016 528.8 586 528.8C589.984 528.8 593.2 532.016 593.2 536C593.2 539.984 589.984 543.2 586 543.2ZM586 534.4C585.12 534.4 584.4 535.12 584.4 536C584.4 536.88 585.12 537.6 586 537.6C586.88 537.6 587.6 536.88 587.6 536C587.6 535.12 586.88 534.4 586 534.4Z" fill="#242424" fill-opacity="0.32"/>
<path d="M358 520C349.168 520 342 527.168 342 536C342 544.832 349.168 552 358 552C366.832 552 374 544.832 374 536C374 527.168 366.832 520 358 520ZM358 543.2C354.016 543.2 350.8 539.984 350.8 536C350.8 532.016 354.016 528.8 358 528.8C361.984 528.8 365.2 532.016 365.2 536C365.2 539.984 361.984 543.2 358 543.2ZM358 534.4C357.12 534.4 356.4 535.12 356.4 536C356.4 536.88 357.12 537.6 358 537.6C358.88 537.6 359.6 536.88 359.6 536C359.6 535.12 358.88 534.4 358 534.4Z" fill="#242424" fill-opacity="0.32"/>
<path d="M814 520C805.168 520 798 527.168 798 536C798 544.832 805.168 552 814 552C822.832 552 830 544.832 830 536C830 527.168 822.832 520 814 520ZM814 543.2C810.016 543.2 806.8 539.984 806.8 536C806.8 532.016 810.016 528.8 814 528.8C817.984 528.8 821.2 532.016 821.2 536C821.2 539.984 817.984 543.2 814 543.2ZM814 534.4C813.12 534.4 812.4 535.12 812.4 536C812.4 536.88 813.12 537.6 814 537.6C814.88 537.6 815.6 536.88 815.6 536C815.6 535.12 814.88 534.4 814 534.4Z" fill="#242424" fill-opacity="0.32"/>
</svg>
