<svg width="1632" height="620" viewBox="0 0 1632 620" fill="none" xmlns="http://www.w3.org/2000/svg">
<path d="M75 0C61.2 0 50 11.2 50 25C50 38.8 61.2 50 75 50C88.8 50 100 38.8 100 25C100 11.2 88.8 0 75 0ZM75 36.25C68.775 36.25 63.75 31.225 63.75 25C63.75 18.775 68.775 13.75 75 13.75C81.225 13.75 86.25 18.775 86.25 25C86.25 31.225 81.225 36.25 75 36.25ZM75 22.5C73.625 22.5 72.5 23.625 72.5 25C72.5 26.375 73.625 27.5 75 27.5C76.375 27.5 77.5 26.375 77.5 25C77.5 23.625 76.375 22.5 75 22.5Z" fill="black" fill-opacity="0.32"/>
<path d="M531 0C517.2 0 506 11.2 506 25C506 38.8 517.2 50 531 50C544.8 50 556 38.8 556 25C556 11.2 544.8 0 531 0ZM531 36.25C524.775 36.25 519.75 31.225 519.75 25C519.75 18.775 524.775 13.75 531 13.75C537.225 13.75 542.25 18.775 542.25 25C542.25 31.225 537.225 36.25 531 36.25ZM531 22.5C529.625 22.5 528.5 23.625 528.5 25C528.5 26.375 529.625 27.5 531 27.5C532.375 27.5 533.5 26.375 533.5 25C533.5 23.625 532.375 22.5 531 22.5Z" fill="black" fill-opacity="0.32"/>
<path d="M987 0C973.2 0 962 11.2 962 25C962 38.8 973.2 50 987 50C1000.8 50 1012 38.8 1012 25C1012 11.2 1000.8 0 987 0ZM987 36.25C980.775 36.25 975.75 31.225 975.75 25C975.75 18.775 980.775 13.75 987 13.75C993.225 13.75 998.25 18.775 998.25 25C998.25 31.225 993.225 36.25 987 36.25ZM987 22.5C985.625 22.5 984.5 23.625 984.5 25C984.5 26.375 985.625 27.5 987 27.5C988.375 27.5 989.5 26.375 989.5 25C989.5 23.625 988.375 22.5 987 22.5Z" fill="black" fill-opacity="0.32"/>
<path d="M1443 0C1429.2 0 1418 11.2 1418 25C1418 38.8 1429.2 50 1443 50C1456.8 50 1468 38.8 1468 25C1468 11.2 1456.8 0 1443 0ZM1443 36.25C1436.77 36.25 1431.75 31.225 1431.75 25C1431.75 18.775 1436.77 13.75 1443 13.75C1449.23 13.75 1454.25 18.775 1454.25 25C1454.25 31.225 1449.23 36.25 1443 36.25ZM1443 22.5C1441.62 22.5 1440.5 23.625 1440.5 25C1440.5 26.375 1441.62 27.5 1443 27.5C1444.38 27.5 1445.5 26.375 1445.5 25C1445.5 23.625 1444.38 22.5 1443 22.5Z" fill="black" fill-opacity="0.32"/>
<path d="M303 0C289.2 0 278 11.2 278 25C278 38.8 289.2 50 303 50C316.8 50 328 38.8 328 25C328 11.2 316.8 0 303 0ZM303 36.25C296.775 36.25 291.75 31.225 291.75 25C291.75 18.775 296.775 13.75 303 13.75C309.225 13.75 314.25 18.775 314.25 25C314.25 31.225 309.225 36.25 303 36.25ZM303 22.5C301.625 22.5 300.5 23.625 300.5 25C300.5 26.375 301.625 27.5 303 27.5C304.375 27.5 305.5 26.375 305.5 25C305.5 23.625 304.375 22.5 303 22.5Z" fill="black" fill-opacity="0.32"/>
<path d="M759 0C745.2 0 734 11.2 734 25C734 38.8 745.2 50 759 50C772.8 50 784 38.8 784 25C784 11.2 772.8 0 759 0ZM759 36.25C752.775 36.25 747.75 31.225 747.75 25C747.75 18.775 752.775 13.75 759 13.75C765.225 13.75 770.25 18.775 770.25 25C770.25 31.225 765.225 36.25 759 36.25ZM759 22.5C757.625 22.5 756.5 23.625 756.5 25C756.5 26.375 757.625 27.5 759 27.5C760.375 27.5 761.5 26.375 761.5 25C761.5 23.625 760.375 22.5 759 22.5Z" fill="black" fill-opacity="0.32"/>
<path d="M1215 0C1201.2 0 1190 11.2 1190 25C1190 38.8 1201.2 50 1215 50C1228.8 50 1240 38.8 1240 25C1240 11.2 1228.8 0 1215 0ZM1215 36.25C1208.77 36.25 1203.75 31.225 1203.75 25C1203.75 18.775 1208.77 13.75 1215 13.75C1221.23 13.75 1226.25 18.775 1226.25 25C1226.25 31.225 1221.23 36.25 1215 36.25ZM1215 22.5C1213.62 22.5 1212.5 23.625 1212.5 25C1212.5 26.375 1213.62 27.5 1215 27.5C1216.38 27.5 1217.5 26.375 1217.5 25C1217.5 23.625 1216.38 22.5 1215 22.5Z" fill="black" fill-opacity="0.32"/>
<path d="M189 0C175.2 0 164 11.2 164 25C164 38.8 175.2 50 189 50C202.8 50 214 38.8 214 25C214 11.2 202.8 0 189 0ZM189 36.25C182.775 36.25 177.75 31.225 177.75 25C177.75 18.775 182.775 13.75 189 13.75C195.225 13.75 200.25 18.775 200.25 25C200.25 31.225 195.225 36.25 189 36.25ZM189 22.5C187.625 22.5 186.5 23.625 186.5 25C186.5 26.375 187.625 27.5 189 27.5C190.375 27.5 191.5 26.375 191.5 25C191.5 23.625 190.375 22.5 189 22.5Z" fill="black" fill-opacity="0.32"/>
<path d="M645 0C631.2 0 620 11.2 620 25C620 38.8 631.2 50 645 50C658.8 50 670 38.8 670 25C670 11.2 658.8 0 645 0ZM645 36.25C638.775 36.25 633.75 31.225 633.75 25C633.75 18.775 638.775 13.75 645 13.75C651.225 13.75 656.25 18.775 656.25 25C656.25 31.225 651.225 36.25 645 36.25ZM645 22.5C643.625 22.5 642.5 23.625 642.5 25C642.5 26.375 643.625 27.5 645 27.5C646.375 27.5 647.5 26.375 647.5 25C647.5 23.625 646.375 22.5 645 22.5Z" fill="black" fill-opacity="0.32"/>
<path d="M1101 0C1087.2 0 1076 11.2 1076 25C1076 38.8 1087.2 50 1101 50C1114.8 50 1126 38.8 1126 25C1126 11.2 1114.8 0 1101 0ZM1101 36.25C1094.77 36.25 1089.75 31.225 1089.75 25C1089.75 18.775 1094.77 13.75 1101 13.75C1107.23 13.75 1112.25 18.775 1112.25 25C1112.25 31.225 1107.23 36.25 1101 36.25ZM1101 22.5C1099.62 22.5 1098.5 23.625 1098.5 25C1098.5 26.375 1099.62 27.5 1101 27.5C1102.38 27.5 1103.5 26.375 1103.5 25C1103.5 23.625 1102.38 22.5 1101 22.5Z" fill="black" fill-opacity="0.32"/>
<path d="M1557 0C1543.2 0 1532 11.2 1532 25C1532 38.8 1543.2 50 1557 50C1570.8 50 1582 38.8 1582 25C1582 11.2 1570.8 0 1557 0ZM1557 36.25C1550.77 36.25 1545.75 31.225 1545.75 25C1545.75 18.775 1550.77 13.75 1557 13.75C1563.23 13.75 1568.25 18.775 1568.25 25C1568.25 31.225 1563.23 36.25 1557 36.25ZM1557 22.5C1555.62 22.5 1554.5 23.625 1554.5 25C1554.5 26.375 1555.62 27.5 1557 27.5C1558.38 27.5 1559.5 26.375 1559.5 25C1559.5 23.625 1558.38 22.5 1557 22.5Z" fill="black" fill-opacity="0.32"/>
<path d="M417 0C403.2 0 392 11.2 392 25C392 38.8 403.2 50 417 50C430.8 50 442 38.8 442 25C442 11.2 430.8 0 417 0ZM417 36.25C410.775 36.25 405.75 31.225 405.75 25C405.75 18.775 410.775 13.75 417 13.75C423.225 13.75 428.25 18.775 428.25 25C428.25 31.225 423.225 36.25 417 36.25ZM417 22.5C415.625 22.5 414.5 23.625 414.5 25C414.5 26.375 415.625 27.5 417 27.5C418.375 27.5 419.5 26.375 419.5 25C419.5 23.625 418.375 22.5 417 22.5Z" fill="black" fill-opacity="0.32"/>
<path d="M873 0C859.2 0 848 11.2 848 25C848 38.8 859.2 50 873 50C886.8 50 898 38.8 898 25C898 11.2 886.8 0 873 0ZM873 36.25C866.775 36.25 861.75 31.225 861.75 25C861.75 18.775 866.775 13.75 873 13.75C879.225 13.75 884.25 18.775 884.25 25C884.25 31.225 879.225 36.25 873 36.25ZM873 22.5C871.625 22.5 870.5 23.625 870.5 25C870.5 26.375 871.625 27.5 873 27.5C874.375 27.5 875.5 26.375 875.5 25C875.5 23.625 874.375 22.5 873 22.5Z" fill="black" fill-opacity="0.32"/>
<path d="M1329 0C1315.2 0 1304 11.2 1304 25C1304 38.8 1315.2 50 1329 50C1342.8 50 1354 38.8 1354 25C1354 11.2 1342.8 0 1329 0ZM1329 36.25C1322.77 36.25 1317.75 31.225 1317.75 25C1317.75 18.775 1322.77 13.75 1329 13.75C1335.23 13.75 1340.25 18.775 1340.25 25C1340.25 31.225 1335.23 36.25 1329 36.25ZM1329 22.5C1327.62 22.5 1326.5 23.625 1326.5 25C1326.5 26.375 1327.62 27.5 1329 27.5C1330.38 27.5 1331.5 26.375 1331.5 25C1331.5 23.625 1330.38 22.5 1329 22.5Z" fill="black" fill-opacity="0.32"/>
<path d="M75 342C61.2 342 50 353.2 50 367C50 380.8 61.2 392 75 392C88.8 392 100 380.8 100 367C100 353.2 88.8 342 75 342ZM75 378.25C68.775 378.25 63.75 373.225 63.75 367C63.75 360.775 68.775 355.75 75 355.75C81.225 355.75 86.25 360.775 86.25 367C86.25 373.225 81.225 378.25 75 378.25ZM75 364.5C73.625 364.5 72.5 365.625 72.5 367C72.5 368.375 73.625 369.5 75 369.5C76.375 369.5 77.5 368.375 77.5 367C77.5 365.625 76.375 364.5 75 364.5Z" fill="black" fill-opacity="0.32"/>
<path d="M531 342C517.2 342 506 353.2 506 367C506 380.8 517.2 392 531 392C544.8 392 556 380.8 556 367C556 353.2 544.8 342 531 342ZM531 378.25C524.775 378.25 519.75 373.225 519.75 367C519.75 360.775 524.775 355.75 531 355.75C537.225 355.75 542.25 360.775 542.25 367C542.25 373.225 537.225 378.25 531 378.25ZM531 364.5C529.625 364.5 528.5 365.625 528.5 367C528.5 368.375 529.625 369.5 531 369.5C532.375 369.5 533.5 368.375 533.5 367C533.5 365.625 532.375 364.5 531 364.5Z" fill="black" fill-opacity="0.32"/>
<path d="M987 342C973.2 342 962 353.2 962 367C962 380.8 973.2 392 987 392C1000.8 392 1012 380.8 1012 367C1012 353.2 1000.8 342 987 342ZM987 378.25C980.775 378.25 975.75 373.225 975.75 367C975.75 360.775 980.775 355.75 987 355.75C993.225 355.75 998.25 360.775 998.25 367C998.25 373.225 993.225 378.25 987 378.25ZM987 364.5C985.625 364.5 984.5 365.625 984.5 367C984.5 368.375 985.625 369.5 987 369.5C988.375 369.5 989.5 368.375 989.5 367C989.5 365.625 988.375 364.5 987 364.5Z" fill="black" fill-opacity="0.32"/>
<path d="M1443 342C1429.2 342 1418 353.2 1418 367C1418 380.8 1429.2 392 1443 392C1456.8 392 1468 380.8 1468 367C1468 353.2 1456.8 342 1443 342ZM1443 378.25C1436.77 378.25 1431.75 373.225 1431.75 367C1431.75 360.775 1436.77 355.75 1443 355.75C1449.23 355.75 1454.25 360.775 1454.25 367C1454.25 373.225 1449.23 378.25 1443 378.25ZM1443 364.5C1441.62 364.5 1440.5 365.625 1440.5 367C1440.5 368.375 1441.62 369.5 1443 369.5C1444.38 369.5 1445.5 368.375 1445.5 367C1445.5 365.625 1444.38 364.5 1443 364.5Z" fill="black" fill-opacity="0.32"/>
<path d="M303 342C289.2 342 278 353.2 278 367C278 380.8 289.2 392 303 392C316.8 392 328 380.8 328 367C328 353.2 316.8 342 303 342ZM303 378.25C296.775 378.25 291.75 373.225 291.75 367C291.75 360.775 296.775 355.75 303 355.75C309.225 355.75 314.25 360.775 314.25 367C314.25 373.225 309.225 378.25 303 378.25ZM303 364.5C301.625 364.5 300.5 365.625 300.5 367C300.5 368.375 301.625 369.5 303 369.5C304.375 369.5 305.5 368.375 305.5 367C305.5 365.625 304.375 364.5 303 364.5Z" fill="black" fill-opacity="0.32"/>
<path d="M759 342C745.2 342 734 353.2 734 367C734 380.8 745.2 392 759 392C772.8 392 784 380.8 784 367C784 353.2 772.8 342 759 342ZM759 378.25C752.775 378.25 747.75 373.225 747.75 367C747.75 360.775 752.775 355.75 759 355.75C765.225 355.75 770.25 360.775 770.25 367C770.25 373.225 765.225 378.25 759 378.25ZM759 364.5C757.625 364.5 756.5 365.625 756.5 367C756.5 368.375 757.625 369.5 759 369.5C760.375 369.5 761.5 368.375 761.5 367C761.5 365.625 760.375 364.5 759 364.5Z" fill="black" fill-opacity="0.32"/>
<path d="M1215 342C1201.2 342 1190 353.2 1190 367C1190 380.8 1201.2 392 1215 392C1228.8 392 1240 380.8 1240 367C1240 353.2 1228.8 342 1215 342ZM1215 378.25C1208.77 378.25 1203.75 373.225 1203.75 367C1203.75 360.775 1208.77 355.75 1215 355.75C1221.23 355.75 1226.25 360.775 1226.25 367C1226.25 373.225 1221.23 378.25 1215 378.25ZM1215 364.5C1213.62 364.5 1212.5 365.625 1212.5 367C1212.5 368.375 1213.62 369.5 1215 369.5C1216.38 369.5 1217.5 368.375 1217.5 367C1217.5 365.625 1216.38 364.5 1215 364.5Z" fill="black" fill-opacity="0.32"/>
<path d="M189 342C175.2 342 164 353.2 164 367C164 380.8 175.2 392 189 392C202.8 392 214 380.8 214 367C214 353.2 202.8 342 189 342ZM189 378.25C182.775 378.25 177.75 373.225 177.75 367C177.75 360.775 182.775 355.75 189 355.75C195.225 355.75 200.25 360.775 200.25 367C200.25 373.225 195.225 378.25 189 378.25ZM189 364.5C187.625 364.5 186.5 365.625 186.5 367C186.5 368.375 187.625 369.5 189 369.5C190.375 369.5 191.5 368.375 191.5 367C191.5 365.625 190.375 364.5 189 364.5Z" fill="black" fill-opacity="0.32"/>
<path d="M645 342C631.2 342 620 353.2 620 367C620 380.8 631.2 392 645 392C658.8 392 670 380.8 670 367C670 353.2 658.8 342 645 342ZM645 378.25C638.775 378.25 633.75 373.225 633.75 367C633.75 360.775 638.775 355.75 645 355.75C651.225 355.75 656.25 360.775 656.25 367C656.25 373.225 651.225 378.25 645 378.25ZM645 364.5C643.625 364.5 642.5 365.625 642.5 367C642.5 368.375 643.625 369.5 645 369.5C646.375 369.5 647.5 368.375 647.5 367C647.5 365.625 646.375 364.5 645 364.5Z" fill="black" fill-opacity="0.32"/>
<path d="M1101 342C1087.2 342 1076 353.2 1076 367C1076 380.8 1087.2 392 1101 392C1114.8 392 1126 380.8 1126 367C1126 353.2 1114.8 342 1101 342ZM1101 378.25C1094.77 378.25 1089.75 373.225 1089.75 367C1089.75 360.775 1094.77 355.75 1101 355.75C1107.23 355.75 1112.25 360.775 1112.25 367C1112.25 373.225 1107.23 378.25 1101 378.25ZM1101 364.5C1099.62 364.5 1098.5 365.625 1098.5 367C1098.5 368.375 1099.62 369.5 1101 369.5C1102.38 369.5 1103.5 368.375 1103.5 367C1103.5 365.625 1102.38 364.5 1101 364.5Z" fill="black" fill-opacity="0.32"/>
<path d="M1557 342C1543.2 342 1532 353.2 1532 367C1532 380.8 1543.2 392 1557 392C1570.8 392 1582 380.8 1582 367C1582 353.2 1570.8 342 1557 342ZM1557 378.25C1550.77 378.25 1545.75 373.225 1545.75 367C1545.75 360.775 1550.77 355.75 1557 355.75C1563.23 355.75 1568.25 360.775 1568.25 367C1568.25 373.225 1563.23 378.25 1557 378.25ZM1557 364.5C1555.62 364.5 1554.5 365.625 1554.5 367C1554.5 368.375 1555.62 369.5 1557 369.5C1558.38 369.5 1559.5 368.375 1559.5 367C1559.5 365.625 1558.38 364.5 1557 364.5Z" fill="black" fill-opacity="0.32"/>
<path d="M417 342C403.2 342 392 353.2 392 367C392 380.8 403.2 392 417 392C430.8 392 442 380.8 442 367C442 353.2 430.8 342 417 342ZM417 378.25C410.775 378.25 405.75 373.225 405.75 367C405.75 360.775 410.775 355.75 417 355.75C423.225 355.75 428.25 360.775 428.25 367C428.25 373.225 423.225 378.25 417 378.25ZM417 364.5C415.625 364.5 414.5 365.625 414.5 367C414.5 368.375 415.625 369.5 417 369.5C418.375 369.5 419.5 368.375 419.5 367C419.5 365.625 418.375 364.5 417 364.5Z" fill="black" fill-opacity="0.32"/>
<path d="M873 342C859.2 342 848 353.2 848 367C848 380.8 859.2 392 873 392C886.8 392 898 380.8 898 367C898 353.2 886.8 342 873 342ZM873 378.25C866.775 378.25 861.75 373.225 861.75 367C861.75 360.775 866.775 355.75 873 355.75C879.225 355.75 884.25 360.775 884.25 367C884.25 373.225 879.225 378.25 873 378.25ZM873 364.5C871.625 364.5 870.5 365.625 870.5 367C870.5 368.375 871.625 369.5 873 369.5C874.375 369.5 875.5 368.375 875.5 367C875.5 365.625 874.375 364.5 873 364.5Z" fill="black" fill-opacity="0.32"/>
<path d="M1329 342C1315.2 342 1304 353.2 1304 367C1304 380.8 1315.2 392 1329 392C1342.8 392 1354 380.8 1354 367C1354 353.2 1342.8 342 1329 342ZM1329 378.25C1322.77 378.25 1317.75 373.225 1317.75 367C1317.75 360.775 1322.77 355.75 1329 355.75C1335.23 355.75 1340.25 360.775 1340.25 367C1340.25 373.225 1335.23 378.25 1329 378.25ZM1329 364.5C1327.62 364.5 1326.5 365.625 1326.5 367C1326.5 368.375 1327.62 369.5 1329 369.5C1330.38 369.5 1331.5 368.375 1331.5 367C1331.5 365.625 1330.38 364.5 1329 364.5Z" fill="black" fill-opacity="0.32"/>
<path d="M25 114C11.2 114 0 125.2 0 139C0 152.8 11.2 164 25 164C38.8 164 50 152.8 50 139C50 125.2 38.8 114 25 114ZM25 150.25C18.775 150.25 13.75 145.225 13.75 139C13.75 132.775 18.775 127.75 25 127.75C31.225 127.75 36.25 132.775 36.25 139C36.25 145.225 31.225 150.25 25 150.25ZM25 136.5C23.625 136.5 22.5 137.625 22.5 139C22.5 140.375 23.625 141.5 25 141.5C26.375 141.5 27.5 140.375 27.5 139C27.5 137.625 26.375 136.5 25 136.5Z" fill="black" fill-opacity="0.32"/>
<path d="M481 114C467.2 114 456 125.2 456 139C456 152.8 467.2 164 481 164C494.8 164 506 152.8 506 139C506 125.2 494.8 114 481 114ZM481 150.25C474.775 150.25 469.75 145.225 469.75 139C469.75 132.775 474.775 127.75 481 127.75C487.225 127.75 492.25 132.775 492.25 139C492.25 145.225 487.225 150.25 481 150.25ZM481 136.5C479.625 136.5 478.5 137.625 478.5 139C478.5 140.375 479.625 141.5 481 141.5C482.375 141.5 483.5 140.375 483.5 139C483.5 137.625 482.375 136.5 481 136.5Z" fill="black" fill-opacity="0.32"/>
<path d="M937 114C923.2 114 912 125.2 912 139C912 152.8 923.2 164 937 164C950.8 164 962 152.8 962 139C962 125.2 950.8 114 937 114ZM937 150.25C930.775 150.25 925.75 145.225 925.75 139C925.75 132.775 930.775 127.75 937 127.75C943.225 127.75 948.25 132.775 948.25 139C948.25 145.225 943.225 150.25 937 150.25ZM937 136.5C935.625 136.5 934.5 137.625 934.5 139C934.5 140.375 935.625 141.5 937 141.5C938.375 141.5 939.5 140.375 939.5 139C939.5 137.625 938.375 136.5 937 136.5Z" fill="black" fill-opacity="0.32"/>
<path d="M1393 114C1379.2 114 1368 125.2 1368 139C1368 152.8 1379.2 164 1393 164C1406.8 164 1418 152.8 1418 139C1418 125.2 1406.8 114 1393 114ZM1393 150.25C1386.77 150.25 1381.75 145.225 1381.75 139C1381.75 132.775 1386.77 127.75 1393 127.75C1399.23 127.75 1404.25 132.775 1404.25 139C1404.25 145.225 1399.23 150.25 1393 150.25ZM1393 136.5C1391.62 136.5 1390.5 137.625 1390.5 139C1390.5 140.375 1391.62 141.5 1393 141.5C1394.38 141.5 1395.5 140.375 1395.5 139C1395.5 137.625 1394.38 136.5 1393 136.5Z" fill="black" fill-opacity="0.32"/>
<path d="M253 114C239.2 114 228 125.2 228 139C228 152.8 239.2 164 253 164C266.8 164 278 152.8 278 139C278 125.2 266.8 114 253 114ZM253 150.25C246.775 150.25 241.75 145.225 241.75 139C241.75 132.775 246.775 127.75 253 127.75C259.225 127.75 264.25 132.775 264.25 139C264.25 145.225 259.225 150.25 253 150.25ZM253 136.5C251.625 136.5 250.5 137.625 250.5 139C250.5 140.375 251.625 141.5 253 141.5C254.375 141.5 255.5 140.375 255.5 139C255.5 137.625 254.375 136.5 253 136.5Z" fill="black" fill-opacity="0.32"/>
<path d="M709 114C695.2 114 684 125.2 684 139C684 152.8 695.2 164 709 164C722.8 164 734 152.8 734 139C734 125.2 722.8 114 709 114ZM709 150.25C702.775 150.25 697.75 145.225 697.75 139C697.75 132.775 702.775 127.75 709 127.75C715.225 127.75 720.25 132.775 720.25 139C720.25 145.225 715.225 150.25 709 150.25ZM709 136.5C707.625 136.5 706.5 137.625 706.5 139C706.5 140.375 707.625 141.5 709 141.5C710.375 141.5 711.5 140.375 711.5 139C711.5 137.625 710.375 136.5 709 136.5Z" fill="black" fill-opacity="0.32"/>
<path d="M1165 114C1151.2 114 1140 125.2 1140 139C1140 152.8 1151.2 164 1165 164C1178.8 164 1190 152.8 1190 139C1190 125.2 1178.8 114 1165 114ZM1165 150.25C1158.77 150.25 1153.75 145.225 1153.75 139C1153.75 132.775 1158.77 127.75 1165 127.75C1171.23 127.75 1176.25 132.775 1176.25 139C1176.25 145.225 1171.23 150.25 1165 150.25ZM1165 136.5C1163.62 136.5 1162.5 137.625 1162.5 139C1162.5 140.375 1163.62 141.5 1165 141.5C1166.38 141.5 1167.5 140.375 1167.5 139C1167.5 137.625 1166.38 136.5 1165 136.5Z" fill="black" fill-opacity="0.32"/>
<path d="M139 114C125.2 114 114 125.2 114 139C114 152.8 125.2 164 139 164C152.8 164 164 152.8 164 139C164 125.2 152.8 114 139 114ZM139 150.25C132.775 150.25 127.75 145.225 127.75 139C127.75 132.775 132.775 127.75 139 127.75C145.225 127.75 150.25 132.775 150.25 139C150.25 145.225 145.225 150.25 139 150.25ZM139 136.5C137.625 136.5 136.5 137.625 136.5 139C136.5 140.375 137.625 141.5 139 141.5C140.375 141.5 141.5 140.375 141.5 139C141.5 137.625 140.375 136.5 139 136.5Z" fill="black" fill-opacity="0.32"/>
<path d="M595 114C581.2 114 570 125.2 570 139C570 152.8 581.2 164 595 164C608.8 164 620 152.8 620 139C620 125.2 608.8 114 595 114ZM595 150.25C588.775 150.25 583.75 145.225 583.75 139C583.75 132.775 588.775 127.75 595 127.75C601.225 127.75 606.25 132.775 606.25 139C606.25 145.225 601.225 150.25 595 150.25ZM595 136.5C593.625 136.5 592.5 137.625 592.5 139C592.5 140.375 593.625 141.5 595 141.5C596.375 141.5 597.5 140.375 597.5 139C597.5 137.625 596.375 136.5 595 136.5Z" fill="black" fill-opacity="0.32"/>
<path d="M1051 114C1037.2 114 1026 125.2 1026 139C1026 152.8 1037.2 164 1051 164C1064.8 164 1076 152.8 1076 139C1076 125.2 1064.8 114 1051 114ZM1051 150.25C1044.77 150.25 1039.75 145.225 1039.75 139C1039.75 132.775 1044.77 127.75 1051 127.75C1057.23 127.75 1062.25 132.775 1062.25 139C1062.25 145.225 1057.23 150.25 1051 150.25ZM1051 136.5C1049.62 136.5 1048.5 137.625 1048.5 139C1048.5 140.375 1049.62 141.5 1051 141.5C1052.38 141.5 1053.5 140.375 1053.5 139C1053.5 137.625 1052.38 136.5 1051 136.5Z" fill="black" fill-opacity="0.32"/>
<path d="M1507 114C1493.2 114 1482 125.2 1482 139C1482 152.8 1493.2 164 1507 164C1520.8 164 1532 152.8 1532 139C1532 125.2 1520.8 114 1507 114ZM1507 150.25C1500.77 150.25 1495.75 145.225 1495.75 139C1495.75 132.775 1500.77 127.75 1507 127.75C1513.23 127.75 1518.25 132.775 1518.25 139C1518.25 145.225 1513.23 150.25 1507 150.25ZM1507 136.5C1505.62 136.5 1504.5 137.625 1504.5 139C1504.5 140.375 1505.62 141.5 1507 141.5C1508.38 141.5 1509.5 140.375 1509.5 139C1509.5 137.625 1508.38 136.5 1507 136.5Z" fill="black" fill-opacity="0.32"/>
<path d="M367 114C353.2 114 342 125.2 342 139C342 152.8 353.2 164 367 164C380.8 164 392 152.8 392 139C392 125.2 380.8 114 367 114ZM367 150.25C360.775 150.25 355.75 145.225 355.75 139C355.75 132.775 360.775 127.75 367 127.75C373.225 127.75 378.25 132.775 378.25 139C378.25 145.225 373.225 150.25 367 150.25ZM367 136.5C365.625 136.5 364.5 137.625 364.5 139C364.5 140.375 365.625 141.5 367 141.5C368.375 141.5 369.5 140.375 369.5 139C369.5 137.625 368.375 136.5 367 136.5Z" fill="black" fill-opacity="0.32"/>
<path d="M823 114C809.2 114 798 125.2 798 139C798 152.8 809.2 164 823 164C836.8 164 848 152.8 848 139C848 125.2 836.8 114 823 114ZM823 150.25C816.775 150.25 811.75 145.225 811.75 139C811.75 132.775 816.775 127.75 823 127.75C829.225 127.75 834.25 132.775 834.25 139C834.25 145.225 829.225 150.25 823 150.25ZM823 136.5C821.625 136.5 820.5 137.625 820.5 139C820.5 140.375 821.625 141.5 823 141.5C824.375 141.5 825.5 140.375 825.5 139C825.5 137.625 824.375 136.5 823 136.5Z" fill="black" fill-opacity="0.32"/>
<path d="M1279 114C1265.2 114 1254 125.2 1254 139C1254 152.8 1265.2 164 1279 164C1292.8 164 1304 152.8 1304 139C1304 125.2 1292.8 114 1279 114ZM1279 150.25C1272.77 150.25 1267.75 145.225 1267.75 139C1267.75 132.775 1272.77 127.75 1279 127.75C1285.23 127.75 1290.25 132.775 1290.25 139C1290.25 145.225 1285.23 150.25 1279 150.25ZM1279 136.5C1277.62 136.5 1276.5 137.625 1276.5 139C1276.5 140.375 1277.62 141.5 1279 141.5C1280.38 141.5 1281.5 140.375 1281.5 139C1281.5 137.625 1280.38 136.5 1279 136.5Z" fill="black" fill-opacity="0.32"/>
<path d="M25 456C11.2 456 0 467.2 0 481C0 494.8 11.2 506 25 506C38.8 506 50 494.8 50 481C50 467.2 38.8 456 25 456ZM25 492.25C18.775 492.25 13.75 487.225 13.75 481C13.75 474.775 18.775 469.75 25 469.75C31.225 469.75 36.25 474.775 36.25 481C36.25 487.225 31.225 492.25 25 492.25ZM25 478.5C23.625 478.5 22.5 479.625 22.5 481C22.5 482.375 23.625 483.5 25 483.5C26.375 483.5 27.5 482.375 27.5 481C27.5 479.625 26.375 478.5 25 478.5Z" fill="black" fill-opacity="0.32"/>
<path d="M481 456C467.2 456 456 467.2 456 481C456 494.8 467.2 506 481 506C494.8 506 506 494.8 506 481C506 467.2 494.8 456 481 456ZM481 492.25C474.775 492.25 469.75 487.225 469.75 481C469.75 474.775 474.775 469.75 481 469.75C487.225 469.75 492.25 474.775 492.25 481C492.25 487.225 487.225 492.25 481 492.25ZM481 478.5C479.625 478.5 478.5 479.625 478.5 481C478.5 482.375 479.625 483.5 481 483.5C482.375 483.5 483.5 482.375 483.5 481C483.5 479.625 482.375 478.5 481 478.5Z" fill="black" fill-opacity="0.32"/>
<path d="M937 456C923.2 456 912 467.2 912 481C912 494.8 923.2 506 937 506C950.8 506 962 494.8 962 481C962 467.2 950.8 456 937 456ZM937 492.25C930.775 492.25 925.75 487.225 925.75 481C925.75 474.775 930.775 469.75 937 469.75C943.225 469.75 948.25 474.775 948.25 481C948.25 487.225 943.225 492.25 937 492.25ZM937 478.5C935.625 478.5 934.5 479.625 934.5 481C934.5 482.375 935.625 483.5 937 483.5C938.375 483.5 939.5 482.375 939.5 481C939.5 479.625 938.375 478.5 937 478.5Z" fill="black" fill-opacity="0.32"/>
<path d="M1393 456C1379.2 456 1368 467.2 1368 481C1368 494.8 1379.2 506 1393 506C1406.8 506 1418 494.8 1418 481C1418 467.2 1406.8 456 1393 456ZM1393 492.25C1386.77 492.25 1381.75 487.225 1381.75 481C1381.75 474.775 1386.77 469.75 1393 469.75C1399.23 469.75 1404.25 474.775 1404.25 481C1404.25 487.225 1399.23 492.25 1393 492.25ZM1393 478.5C1391.62 478.5 1390.5 479.625 1390.5 481C1390.5 482.375 1391.62 483.5 1393 483.5C1394.38 483.5 1395.5 482.375 1395.5 481C1395.5 479.625 1394.38 478.5 1393 478.5Z" fill="black" fill-opacity="0.32"/>
<path d="M253 456C239.2 456 228 467.2 228 481C228 494.8 239.2 506 253 506C266.8 506 278 494.8 278 481C278 467.2 266.8 456 253 456ZM253 492.25C246.775 492.25 241.75 487.225 241.75 481C241.75 474.775 246.775 469.75 253 469.75C259.225 469.75 264.25 474.775 264.25 481C264.25 487.225 259.225 492.25 253 492.25ZM253 478.5C251.625 478.5 250.5 479.625 250.5 481C250.5 482.375 251.625 483.5 253 483.5C254.375 483.5 255.5 482.375 255.5 481C255.5 479.625 254.375 478.5 253 478.5Z" fill="black" fill-opacity="0.32"/>
<path d="M709 456C695.2 456 684 467.2 684 481C684 494.8 695.2 506 709 506C722.8 506 734 494.8 734 481C734 467.2 722.8 456 709 456ZM709 492.25C702.775 492.25 697.75 487.225 697.75 481C697.75 474.775 702.775 469.75 709 469.75C715.225 469.75 720.25 474.775 720.25 481C720.25 487.225 715.225 492.25 709 492.25ZM709 478.5C707.625 478.5 706.5 479.625 706.5 481C706.5 482.375 707.625 483.5 709 483.5C710.375 483.5 711.5 482.375 711.5 481C711.5 479.625 710.375 478.5 709 478.5Z" fill="black" fill-opacity="0.32"/>
<path d="M1165 456C1151.2 456 1140 467.2 1140 481C1140 494.8 1151.2 506 1165 506C1178.8 506 1190 494.8 1190 481C1190 467.2 1178.8 456 1165 456ZM1165 492.25C1158.77 492.25 1153.75 487.225 1153.75 481C1153.75 474.775 1158.77 469.75 1165 469.75C1171.23 469.75 1176.25 474.775 1176.25 481C1176.25 487.225 1171.23 492.25 1165 492.25ZM1165 478.5C1163.62 478.5 1162.5 479.625 1162.5 481C1162.5 482.375 1163.62 483.5 1165 483.5C1166.38 483.5 1167.5 482.375 1167.5 481C1167.5 479.625 1166.38 478.5 1165 478.5Z" fill="black" fill-opacity="0.32"/>
<path d="M139 456C125.2 456 114 467.2 114 481C114 494.8 125.2 506 139 506C152.8 506 164 494.8 164 481C164 467.2 152.8 456 139 456ZM139 492.25C132.775 492.25 127.75 487.225 127.75 481C127.75 474.775 132.775 469.75 139 469.75C145.225 469.75 150.25 474.775 150.25 481C150.25 487.225 145.225 492.25 139 492.25ZM139 478.5C137.625 478.5 136.5 479.625 136.5 481C136.5 482.375 137.625 483.5 139 483.5C140.375 483.5 141.5 482.375 141.5 481C141.5 479.625 140.375 478.5 139 478.5Z" fill="black" fill-opacity="0.32"/>
<path d="M595 456C581.2 456 570 467.2 570 481C570 494.8 581.2 506 595 506C608.8 506 620 494.8 620 481C620 467.2 608.8 456 595 456ZM595 492.25C588.775 492.25 583.75 487.225 583.75 481C583.75 474.775 588.775 469.75 595 469.75C601.225 469.75 606.25 474.775 606.25 481C606.25 487.225 601.225 492.25 595 492.25ZM595 478.5C593.625 478.5 592.5 479.625 592.5 481C592.5 482.375 593.625 483.5 595 483.5C596.375 483.5 597.5 482.375 597.5 481C597.5 479.625 596.375 478.5 595 478.5Z" fill="black" fill-opacity="0.32"/>
<path d="M1051 456C1037.2 456 1026 467.2 1026 481C1026 494.8 1037.2 506 1051 506C1064.8 506 1076 494.8 1076 481C1076 467.2 1064.8 456 1051 456ZM1051 492.25C1044.77 492.25 1039.75 487.225 1039.75 481C1039.75 474.775 1044.77 469.75 1051 469.75C1057.23 469.75 1062.25 474.775 1062.25 481C1062.25 487.225 1057.23 492.25 1051 492.25ZM1051 478.5C1049.62 478.5 1048.5 479.625 1048.5 481C1048.5 482.375 1049.62 483.5 1051 483.5C1052.38 483.5 1053.5 482.375 1053.5 481C1053.5 479.625 1052.38 478.5 1051 478.5Z" fill="black" fill-opacity="0.32"/>
<path d="M1507 456C1493.2 456 1482 467.2 1482 481C1482 494.8 1493.2 506 1507 506C1520.8 506 1532 494.8 1532 481C1532 467.2 1520.8 456 1507 456ZM1507 492.25C1500.77 492.25 1495.75 487.225 1495.75 481C1495.75 474.775 1500.77 469.75 1507 469.75C1513.23 469.75 1518.25 474.775 1518.25 481C1518.25 487.225 1513.23 492.25 1507 492.25ZM1507 478.5C1505.62 478.5 1504.5 479.625 1504.5 481C1504.5 482.375 1505.62 483.5 1507 483.5C1508.38 483.5 1509.5 482.375 1509.5 481C1509.5 479.625 1508.38 478.5 1507 478.5Z" fill="black" fill-opacity="0.32"/>
<path d="M367 456C353.2 456 342 467.2 342 481C342 494.8 353.2 506 367 506C380.8 506 392 494.8 392 481C392 467.2 380.8 456 367 456ZM367 492.25C360.775 492.25 355.75 487.225 355.75 481C355.75 474.775 360.775 469.75 367 469.75C373.225 469.75 378.25 474.775 378.25 481C378.25 487.225 373.225 492.25 367 492.25ZM367 478.5C365.625 478.5 364.5 479.625 364.5 481C364.5 482.375 365.625 483.5 367 483.5C368.375 483.5 369.5 482.375 369.5 481C369.5 479.625 368.375 478.5 367 478.5Z" fill="black" fill-opacity="0.32"/>
<path d="M823 456C809.2 456 798 467.2 798 481C798 494.8 809.2 506 823 506C836.8 506 848 494.8 848 481C848 467.2 836.8 456 823 456ZM823 492.25C816.775 492.25 811.75 487.225 811.75 481C811.75 474.775 816.775 469.75 823 469.75C829.225 469.75 834.25 474.775 834.25 481C834.25 487.225 829.225 492.25 823 492.25ZM823 478.5C821.625 478.5 820.5 479.625 820.5 481C820.5 482.375 821.625 483.5 823 483.5C824.375 483.5 825.5 482.375 825.5 481C825.5 479.625 824.375 478.5 823 478.5Z" fill="black" fill-opacity="0.32"/>
<path d="M1279 456C1265.2 456 1254 467.2 1254 481C1254 494.8 1265.2 506 1279 506C1292.8 506 1304 494.8 1304 481C1304 467.2 1292.8 456 1279 456ZM1279 492.25C1272.77 492.25 1267.75 487.225 1267.75 481C1267.75 474.775 1272.77 469.75 1279 469.75C1285.23 469.75 1290.25 474.775 1290.25 481C1290.25 487.225 1285.23 492.25 1279 492.25ZM1279 478.5C1277.62 478.5 1276.5 479.625 1276.5 481C1276.5 482.375 1277.62 483.5 1279 483.5C1280.38 483.5 1281.5 482.375 1281.5 481C1281.5 479.625 1280.38 478.5 1279 478.5Z" fill="black" fill-opacity="0.32"/>
<path d="M125 228C111.2 228 100 239.2 100 253C100 266.8 111.2 278 125 278C138.8 278 150 266.8 150 253C150 239.2 138.8 228 125 228ZM125 264.25C118.775 264.25 113.75 259.225 113.75 253C113.75 246.775 118.775 241.75 125 241.75C131.225 241.75 136.25 246.775 136.25 253C136.25 259.225 131.225 264.25 125 264.25ZM125 250.5C123.625 250.5 122.5 251.625 122.5 253C122.5 254.375 123.625 255.5 125 255.5C126.375 255.5 127.5 254.375 127.5 253C127.5 251.625 126.375 250.5 125 250.5Z" fill="black" fill-opacity="0.32"/>
<path d="M581 228C567.2 228 556 239.2 556 253C556 266.8 567.2 278 581 278C594.8 278 606 266.8 606 253C606 239.2 594.8 228 581 228ZM581 264.25C574.775 264.25 569.75 259.225 569.75 253C569.75 246.775 574.775 241.75 581 241.75C587.225 241.75 592.25 246.775 592.25 253C592.25 259.225 587.225 264.25 581 264.25ZM581 250.5C579.625 250.5 578.5 251.625 578.5 253C578.5 254.375 579.625 255.5 581 255.5C582.375 255.5 583.5 254.375 583.5 253C583.5 251.625 582.375 250.5 581 250.5Z" fill="black" fill-opacity="0.32"/>
<path d="M1037 228C1023.2 228 1012 239.2 1012 253C1012 266.8 1023.2 278 1037 278C1050.8 278 1062 266.8 1062 253C1062 239.2 1050.8 228 1037 228ZM1037 264.25C1030.77 264.25 1025.75 259.225 1025.75 253C1025.75 246.775 1030.77 241.75 1037 241.75C1043.23 241.75 1048.25 246.775 1048.25 253C1048.25 259.225 1043.23 264.25 1037 264.25ZM1037 250.5C1035.62 250.5 1034.5 251.625 1034.5 253C1034.5 254.375 1035.62 255.5 1037 255.5C1038.38 255.5 1039.5 254.375 1039.5 253C1039.5 251.625 1038.38 250.5 1037 250.5Z" fill="black" fill-opacity="0.32"/>
<path d="M1493 228C1479.2 228 1468 239.2 1468 253C1468 266.8 1479.2 278 1493 278C1506.8 278 1518 266.8 1518 253C1518 239.2 1506.8 228 1493 228ZM1493 264.25C1486.77 264.25 1481.75 259.225 1481.75 253C1481.75 246.775 1486.77 241.75 1493 241.75C1499.23 241.75 1504.25 246.775 1504.25 253C1504.25 259.225 1499.23 264.25 1493 264.25ZM1493 250.5C1491.62 250.5 1490.5 251.625 1490.5 253C1490.5 254.375 1491.62 255.5 1493 255.5C1494.38 255.5 1495.5 254.375 1495.5 253C1495.5 251.625 1494.38 250.5 1493 250.5Z" fill="black" fill-opacity="0.32"/>
<path d="M353 228C339.2 228 328 239.2 328 253C328 266.8 339.2 278 353 278C366.8 278 378 266.8 378 253C378 239.2 366.8 228 353 228ZM353 264.25C346.775 264.25 341.75 259.225 341.75 253C341.75 246.775 346.775 241.75 353 241.75C359.225 241.75 364.25 246.775 364.25 253C364.25 259.225 359.225 264.25 353 264.25ZM353 250.5C351.625 250.5 350.5 251.625 350.5 253C350.5 254.375 351.625 255.5 353 255.5C354.375 255.5 355.5 254.375 355.5 253C355.5 251.625 354.375 250.5 353 250.5Z" fill="black" fill-opacity="0.32"/>
<path d="M809 228C795.2 228 784 239.2 784 253C784 266.8 795.2 278 809 278C822.8 278 834 266.8 834 253C834 239.2 822.8 228 809 228ZM809 264.25C802.775 264.25 797.75 259.225 797.75 253C797.75 246.775 802.775 241.75 809 241.75C815.225 241.75 820.25 246.775 820.25 253C820.25 259.225 815.225 264.25 809 264.25ZM809 250.5C807.625 250.5 806.5 251.625 806.5 253C806.5 254.375 807.625 255.5 809 255.5C810.375 255.5 811.5 254.375 811.5 253C811.5 251.625 810.375 250.5 809 250.5Z" fill="black" fill-opacity="0.32"/>
<path d="M1265 228C1251.2 228 1240 239.2 1240 253C1240 266.8 1251.2 278 1265 278C1278.8 278 1290 266.8 1290 253C1290 239.2 1278.8 228 1265 228ZM1265 264.25C1258.77 264.25 1253.75 259.225 1253.75 253C1253.75 246.775 1258.77 241.75 1265 241.75C1271.23 241.75 1276.25 246.775 1276.25 253C1276.25 259.225 1271.23 264.25 1265 264.25ZM1265 250.5C1263.62 250.5 1262.5 251.625 1262.5 253C1262.5 254.375 1263.62 255.5 1265 255.5C1266.38 255.5 1267.5 254.375 1267.5 253C1267.5 251.625 1266.38 250.5 1265 250.5Z" fill="black" fill-opacity="0.32"/>
<path d="M239 228C225.2 228 214 239.2 214 253C214 266.8 225.2 278 239 278C252.8 278 264 266.8 264 253C264 239.2 252.8 228 239 228ZM239 264.25C232.775 264.25 227.75 259.225 227.75 253C227.75 246.775 232.775 241.75 239 241.75C245.225 241.75 250.25 246.775 250.25 253C250.25 259.225 245.225 264.25 239 264.25ZM239 250.5C237.625 250.5 236.5 251.625 236.5 253C236.5 254.375 237.625 255.5 239 255.5C240.375 255.5 241.5 254.375 241.5 253C241.5 251.625 240.375 250.5 239 250.5Z" fill="black" fill-opacity="0.32"/>
<path d="M695 228C681.2 228 670 239.2 670 253C670 266.8 681.2 278 695 278C708.8 278 720 266.8 720 253C720 239.2 708.8 228 695 228ZM695 264.25C688.775 264.25 683.75 259.225 683.75 253C683.75 246.775 688.775 241.75 695 241.75C701.225 241.75 706.25 246.775 706.25 253C706.25 259.225 701.225 264.25 695 264.25ZM695 250.5C693.625 250.5 692.5 251.625 692.5 253C692.5 254.375 693.625 255.5 695 255.5C696.375 255.5 697.5 254.375 697.5 253C697.5 251.625 696.375 250.5 695 250.5Z" fill="black" fill-opacity="0.32"/>
<path d="M1151 228C1137.2 228 1126 239.2 1126 253C1126 266.8 1137.2 278 1151 278C1164.8 278 1176 266.8 1176 253C1176 239.2 1164.8 228 1151 228ZM1151 264.25C1144.77 264.25 1139.75 259.225 1139.75 253C1139.75 246.775 1144.77 241.75 1151 241.75C1157.23 241.75 1162.25 246.775 1162.25 253C1162.25 259.225 1157.23 264.25 1151 264.25ZM1151 250.5C1149.62 250.5 1148.5 251.625 1148.5 253C1148.5 254.375 1149.62 255.5 1151 255.5C1152.38 255.5 1153.5 254.375 1153.5 253C1153.5 251.625 1152.38 250.5 1151 250.5Z" fill="black" fill-opacity="0.32"/>
<path d="M1607 228C1593.2 228 1582 239.2 1582 253C1582 266.8 1593.2 278 1607 278C1620.8 278 1632 266.8 1632 253C1632 239.2 1620.8 228 1607 228ZM1607 264.25C1600.77 264.25 1595.75 259.225 1595.75 253C1595.75 246.775 1600.77 241.75 1607 241.75C1613.23 241.75 1618.25 246.775 1618.25 253C1618.25 259.225 1613.23 264.25 1607 264.25ZM1607 250.5C1605.62 250.5 1604.5 251.625 1604.5 253C1604.5 254.375 1605.62 255.5 1607 255.5C1608.38 255.5 1609.5 254.375 1609.5 253C1609.5 251.625 1608.38 250.5 1607 250.5Z" fill="black" fill-opacity="0.32"/>
<path d="M467 228C453.2 228 442 239.2 442 253C442 266.8 453.2 278 467 278C480.8 278 492 266.8 492 253C492 239.2 480.8 228 467 228ZM467 264.25C460.775 264.25 455.75 259.225 455.75 253C455.75 246.775 460.775 241.75 467 241.75C473.225 241.75 478.25 246.775 478.25 253C478.25 259.225 473.225 264.25 467 264.25ZM467 250.5C465.625 250.5 464.5 251.625 464.5 253C464.5 254.375 465.625 255.5 467 255.5C468.375 255.5 469.5 254.375 469.5 253C469.5 251.625 468.375 250.5 467 250.5Z" fill="black" fill-opacity="0.32"/>
<path d="M923 228C909.2 228 898 239.2 898 253C898 266.8 909.2 278 923 278C936.8 278 948 266.8 948 253C948 239.2 936.8 228 923 228ZM923 264.25C916.775 264.25 911.75 259.225 911.75 253C911.75 246.775 916.775 241.75 923 241.75C929.225 241.75 934.25 246.775 934.25 253C934.25 259.225 929.225 264.25 923 264.25ZM923 250.5C921.625 250.5 920.5 251.625 920.5 253C920.5 254.375 921.625 255.5 923 255.5C924.375 255.5 925.5 254.375 925.5 253C925.5 251.625 924.375 250.5 923 250.5Z" fill="black" fill-opacity="0.32"/>
<path d="M1379 228C1365.2 228 1354 239.2 1354 253C1354 266.8 1365.2 278 1379 278C1392.8 278 1404 266.8 1404 253C1404 239.2 1392.8 228 1379 228ZM1379 264.25C1372.77 264.25 1367.75 259.225 1367.75 253C1367.75 246.775 1372.77 241.75 1379 241.75C1385.23 241.75 1390.25 246.775 1390.25 253C1390.25 259.225 1385.23 264.25 1379 264.25ZM1379 250.5C1377.62 250.5 1376.5 251.625 1376.5 253C1376.5 254.375 1377.62 255.5 1379 255.5C1380.38 255.5 1381.5 254.375 1381.5 253C1381.5 251.625 1380.38 250.5 1379 250.5Z" fill="black" fill-opacity="0.32"/>
<path d="M125 570C111.2 570 100 581.2 100 595C100 608.8 111.2 620 125 620C138.8 620 150 608.8 150 595C150 581.2 138.8 570 125 570ZM125 606.25C118.775 606.25 113.75 601.225 113.75 595C113.75 588.775 118.775 583.75 125 583.75C131.225 583.75 136.25 588.775 136.25 595C136.25 601.225 131.225 606.25 125 606.25ZM125 592.5C123.625 592.5 122.5 593.625 122.5 595C122.5 596.375 123.625 597.5 125 597.5C126.375 597.5 127.5 596.375 127.5 595C127.5 593.625 126.375 592.5 125 592.5Z" fill="black" fill-opacity="0.32"/>
<path d="M581 570C567.2 570 556 581.2 556 595C556 608.8 567.2 620 581 620C594.8 620 606 608.8 606 595C606 581.2 594.8 570 581 570ZM581 606.25C574.775 606.25 569.75 601.225 569.75 595C569.75 588.775 574.775 583.75 581 583.75C587.225 583.75 592.25 588.775 592.25 595C592.25 601.225 587.225 606.25 581 606.25ZM581 592.5C579.625 592.5 578.5 593.625 578.5 595C578.5 596.375 579.625 597.5 581 597.5C582.375 597.5 583.5 596.375 583.5 595C583.5 593.625 582.375 592.5 581 592.5Z" fill="black" fill-opacity="0.32"/>
<path d="M1037 570C1023.2 570 1012 581.2 1012 595C1012 608.8 1023.2 620 1037 620C1050.8 620 1062 608.8 1062 595C1062 581.2 1050.8 570 1037 570ZM1037 606.25C1030.77 606.25 1025.75 601.225 1025.75 595C1025.75 588.775 1030.77 583.75 1037 583.75C1043.23 583.75 1048.25 588.775 1048.25 595C1048.25 601.225 1043.23 606.25 1037 606.25ZM1037 592.5C1035.62 592.5 1034.5 593.625 1034.5 595C1034.5 596.375 1035.62 597.5 1037 597.5C1038.38 597.5 1039.5 596.375 1039.5 595C1039.5 593.625 1038.38 592.5 1037 592.5Z" fill="black" fill-opacity="0.32"/>
<path d="M1493 570C1479.2 570 1468 581.2 1468 595C1468 608.8 1479.2 620 1493 620C1506.8 620 1518 608.8 1518 595C1518 581.2 1506.8 570 1493 570ZM1493 606.25C1486.77 606.25 1481.75 601.225 1481.75 595C1481.75 588.775 1486.77 583.75 1493 583.75C1499.23 583.75 1504.25 588.775 1504.25 595C1504.25 601.225 1499.23 606.25 1493 606.25ZM1493 592.5C1491.62 592.5 1490.5 593.625 1490.5 595C1490.5 596.375 1491.62 597.5 1493 597.5C1494.38 597.5 1495.5 596.375 1495.5 595C1495.5 593.625 1494.38 592.5 1493 592.5Z" fill="black" fill-opacity="0.32"/>
<path d="M353 570C339.2 570 328 581.2 328 595C328 608.8 339.2 620 353 620C366.8 620 378 608.8 378 595C378 581.2 366.8 570 353 570ZM353 606.25C346.775 606.25 341.75 601.225 341.75 595C341.75 588.775 346.775 583.75 353 583.75C359.225 583.75 364.25 588.775 364.25 595C364.25 601.225 359.225 606.25 353 606.25ZM353 592.5C351.625 592.5 350.5 593.625 350.5 595C350.5 596.375 351.625 597.5 353 597.5C354.375 597.5 355.5 596.375 355.5 595C355.5 593.625 354.375 592.5 353 592.5Z" fill="black" fill-opacity="0.32"/>
<path d="M809 570C795.2 570 784 581.2 784 595C784 608.8 795.2 620 809 620C822.8 620 834 608.8 834 595C834 581.2 822.8 570 809 570ZM809 606.25C802.775 606.25 797.75 601.225 797.75 595C797.75 588.775 802.775 583.75 809 583.75C815.225 583.75 820.25 588.775 820.25 595C820.25 601.225 815.225 606.25 809 606.25ZM809 592.5C807.625 592.5 806.5 593.625 806.5 595C806.5 596.375 807.625 597.5 809 597.5C810.375 597.5 811.5 596.375 811.5 595C811.5 593.625 810.375 592.5 809 592.5Z" fill="black" fill-opacity="0.32"/>
<path d="M1265 570C1251.2 570 1240 581.2 1240 595C1240 608.8 1251.2 620 1265 620C1278.8 620 1290 608.8 1290 595C1290 581.2 1278.8 570 1265 570ZM1265 606.25C1258.77 606.25 1253.75 601.225 1253.75 595C1253.75 588.775 1258.77 583.75 1265 583.75C1271.23 583.75 1276.25 588.775 1276.25 595C1276.25 601.225 1271.23 606.25 1265 606.25ZM1265 592.5C1263.62 592.5 1262.5 593.625 1262.5 595C1262.5 596.375 1263.62 597.5 1265 597.5C1266.38 597.5 1267.5 596.375 1267.5 595C1267.5 593.625 1266.38 592.5 1265 592.5Z" fill="black" fill-opacity="0.32"/>
<path d="M239 570C225.2 570 214 581.2 214 595C214 608.8 225.2 620 239 620C252.8 620 264 608.8 264 595C264 581.2 252.8 570 239 570ZM239 606.25C232.775 606.25 227.75 601.225 227.75 595C227.75 588.775 232.775 583.75 239 583.75C245.225 583.75 250.25 588.775 250.25 595C250.25 601.225 245.225 606.25 239 606.25ZM239 592.5C237.625 592.5 236.5 593.625 236.5 595C236.5 596.375 237.625 597.5 239 597.5C240.375 597.5 241.5 596.375 241.5 595C241.5 593.625 240.375 592.5 239 592.5Z" fill="black" fill-opacity="0.32"/>
<path d="M695 570C681.2 570 670 581.2 670 595C670 608.8 681.2 620 695 620C708.8 620 720 608.8 720 595C720 581.2 708.8 570 695 570ZM695 606.25C688.775 606.25 683.75 601.225 683.75 595C683.75 588.775 688.775 583.75 695 583.75C701.225 583.75 706.25 588.775 706.25 595C706.25 601.225 701.225 606.25 695 606.25ZM695 592.5C693.625 592.5 692.5 593.625 692.5 595C692.5 596.375 693.625 597.5 695 597.5C696.375 597.5 697.5 596.375 697.5 595C697.5 593.625 696.375 592.5 695 592.5Z" fill="black" fill-opacity="0.32"/>
<path d="M1151 570C1137.2 570 1126 581.2 1126 595C1126 608.8 1137.2 620 1151 620C1164.8 620 1176 608.8 1176 595C1176 581.2 1164.8 570 1151 570ZM1151 606.25C1144.77 606.25 1139.75 601.225 1139.75 595C1139.75 588.775 1144.77 583.75 1151 583.75C1157.23 583.75 1162.25 588.775 1162.25 595C1162.25 601.225 1157.23 606.25 1151 606.25ZM1151 592.5C1149.62 592.5 1148.5 593.625 1148.5 595C1148.5 596.375 1149.62 597.5 1151 597.5C1152.38 597.5 1153.5 596.375 1153.5 595C1153.5 593.625 1152.38 592.5 1151 592.5Z" fill="black" fill-opacity="0.32"/>
<path d="M1607 570C1593.2 570 1582 581.2 1582 595C1582 608.8 1593.2 620 1607 620C1620.8 620 1632 608.8 1632 595C1632 581.2 1620.8 570 1607 570ZM1607 606.25C1600.77 606.25 1595.75 601.225 1595.75 595C1595.75 588.775 1600.77 583.75 1607 583.75C1613.23 583.75 1618.25 588.775 1618.25 595C1618.25 601.225 1613.23 606.25 1607 606.25ZM1607 592.5C1605.62 592.5 1604.5 593.625 1604.5 595C1604.5 596.375 1605.62 597.5 1607 597.5C1608.38 597.5 1609.5 596.375 1609.5 595C1609.5 593.625 1608.38 592.5 1607 592.5Z" fill="black" fill-opacity="0.32"/>
<path d="M467 570C453.2 570 442 581.2 442 595C442 608.8 453.2 620 467 620C480.8 620 492 608.8 492 595C492 581.2 480.8 570 467 570ZM467 606.25C460.775 606.25 455.75 601.225 455.75 595C455.75 588.775 460.775 583.75 467 583.75C473.225 583.75 478.25 588.775 478.25 595C478.25 601.225 473.225 606.25 467 606.25ZM467 592.5C465.625 592.5 464.5 593.625 464.5 595C464.5 596.375 465.625 597.5 467 597.5C468.375 597.5 469.5 596.375 469.5 595C469.5 593.625 468.375 592.5 467 592.5Z" fill="black" fill-opacity="0.32"/>
<path d="M923 570C909.2 570 898 581.2 898 595C898 608.8 909.2 620 923 620C936.8 620 948 608.8 948 595C948 581.2 936.8 570 923 570ZM923 606.25C916.775 606.25 911.75 601.225 911.75 595C911.75 588.775 916.775 583.75 923 583.75C929.225 583.75 934.25 588.775 934.25 595C934.25 601.225 929.225 606.25 923 606.25ZM923 592.5C921.625 592.5 920.5 593.625 920.5 595C920.5 596.375 921.625 597.5 923 597.5C924.375 597.5 925.5 596.375 925.5 595C925.5 593.625 924.375 592.5 923 592.5Z" fill="black" fill-opacity="0.32"/>
<path d="M1379 570C1365.2 570 1354 581.2 1354 595C1354 608.8 1365.2 620 1379 620C1392.8 620 1404 608.8 1404 595C1404 581.2 1392.8 570 1379 570ZM1379 606.25C1372.77 606.25 1367.75 601.225 1367.75 595C1367.75 588.775 1372.77 583.75 1379 583.75C1385.23 583.75 1390.25 588.775 1390.25 595C1390.25 601.225 1385.23 606.25 1379 606.25ZM1379 592.5C1377.62 592.5 1376.5 593.625 1376.5 595C1376.5 596.375 1377.62 597.5 1379 597.5C1380.38 597.5 1381.5 596.375 1381.5 595C1381.5 593.625 1380.38 592.5 1379 592.5Z" fill="black" fill-opacity="0.32"/>
</svg>
