<svg width="888" height="624" viewBox="0 0 888 624" fill="none" xmlns="http://www.w3.org/2000/svg">
<path d="M65 0C51.2 0 40 11.2 40 25C40 38.8 51.2 50 65 50C78.8 50 90 38.8 90 25C90 11.2 78.8 0 65 0ZM65 36.25C58.775 36.25 53.75 31.225 53.75 25C53.75 18.775 58.775 13.75 65 13.75C71.225 13.75 76.25 18.775 76.25 25C76.25 31.225 71.225 36.25 65 36.25ZM65 22.5C63.625 22.5 62.5 23.625 62.5 25C62.5 26.375 63.625 27.5 65 27.5C66.375 27.5 67.5 26.375 67.5 25C67.5 23.625 66.375 22.5 65 22.5Z" fill="black" fill-opacity="0.32"/>
<path d="M521 0C507.2 0 496 11.2 496 25C496 38.8 507.2 50 521 50C534.8 50 546 38.8 546 25C546 11.2 534.8 0 521 0ZM521 36.25C514.775 36.25 509.75 31.225 509.75 25C509.75 18.775 514.775 13.75 521 13.75C527.225 13.75 532.25 18.775 532.25 25C532.25 31.225 527.225 36.25 521 36.25ZM521 22.5C519.625 22.5 518.5 23.625 518.5 25C518.5 26.375 519.625 27.5 521 27.5C522.375 27.5 523.5 26.375 523.5 25C523.5 23.625 522.375 22.5 521 22.5Z" fill="black" fill-opacity="0.32"/>
<path d="M293 0C279.2 0 268 11.2 268 25C268 38.8 279.2 50 293 50C306.8 50 318 38.8 318 25C318 11.2 306.8 0 293 0ZM293 36.25C286.775 36.25 281.75 31.225 281.75 25C281.75 18.775 286.775 13.75 293 13.75C299.225 13.75 304.25 18.775 304.25 25C304.25 31.225 299.225 36.25 293 36.25ZM293 22.5C291.625 22.5 290.5 23.625 290.5 25C290.5 26.375 291.625 27.5 293 27.5C294.375 27.5 295.5 26.375 295.5 25C295.5 23.625 294.375 22.5 293 22.5Z" fill="black" fill-opacity="0.32"/>
<path d="M749 0C735.2 0 724 11.2 724 25C724 38.8 735.2 50 749 50C762.8 50 774 38.8 774 25C774 11.2 762.8 0 749 0ZM749 36.25C742.775 36.25 737.75 31.225 737.75 25C737.75 18.775 742.775 13.75 749 13.75C755.225 13.75 760.25 18.775 760.25 25C760.25 31.225 755.225 36.25 749 36.25ZM749 22.5C747.625 22.5 746.5 23.625 746.5 25C746.5 26.375 747.625 27.5 749 27.5C750.375 27.5 751.5 26.375 751.5 25C751.5 23.625 750.375 22.5 749 22.5Z" fill="black" fill-opacity="0.32"/>
<path d="M179 0C165.2 0 154 11.2 154 25C154 38.8 165.2 50 179 50C192.8 50 204 38.8 204 25C204 11.2 192.8 0 179 0ZM179 36.25C172.775 36.25 167.75 31.225 167.75 25C167.75 18.775 172.775 13.75 179 13.75C185.225 13.75 190.25 18.775 190.25 25C190.25 31.225 185.225 36.25 179 36.25ZM179 22.5C177.625 22.5 176.5 23.625 176.5 25C176.5 26.375 177.625 27.5 179 27.5C180.375 27.5 181.5 26.375 181.5 25C181.5 23.625 180.375 22.5 179 22.5Z" fill="black" fill-opacity="0.24"/>
<path d="M635 0C621.2 0 610 11.2 610 25C610 38.8 621.2 50 635 50C648.8 50 660 38.8 660 25C660 11.2 648.8 0 635 0ZM635 36.25C628.775 36.25 623.75 31.225 623.75 25C623.75 18.775 628.775 13.75 635 13.75C641.225 13.75 646.25 18.775 646.25 25C646.25 31.225 641.225 36.25 635 36.25ZM635 22.5C633.625 22.5 632.5 23.625 632.5 25C632.5 26.375 633.625 27.5 635 27.5C636.375 27.5 637.5 26.375 637.5 25C637.5 23.625 636.375 22.5 635 22.5Z" fill="black" fill-opacity="0.24"/>
<path d="M407 0C393.2 0 382 11.2 382 25C382 38.8 393.2 50 407 50C420.8 50 432 38.8 432 25C432 11.2 420.8 0 407 0ZM407 36.25C400.775 36.25 395.75 31.225 395.75 25C395.75 18.775 400.775 13.75 407 13.75C413.225 13.75 418.25 18.775 418.25 25C418.25 31.225 413.225 36.25 407 36.25ZM407 22.5C405.625 22.5 404.5 23.625 404.5 25C404.5 26.375 405.625 27.5 407 27.5C408.375 27.5 409.5 26.375 409.5 25C409.5 23.625 408.375 22.5 407 22.5Z" fill="black" fill-opacity="0.24"/>
<path d="M863 0C849.2 0 838 11.2 838 25C838 38.8 849.2 50 863 50C876.8 50 888 38.8 888 25C888 11.2 876.8 0 863 0ZM863 36.25C856.775 36.25 851.75 31.225 851.75 25C851.75 18.775 856.775 13.75 863 13.75C869.225 13.75 874.25 18.775 874.25 25C874.25 31.225 869.225 36.25 863 36.25ZM863 22.5C861.625 22.5 860.5 23.625 860.5 25C860.5 26.375 861.625 27.5 863 27.5C864.375 27.5 865.5 26.375 865.5 25C865.5 23.625 864.375 22.5 863 22.5Z" fill="black" fill-opacity="0.24"/>
<path d="M65 328C51.2 328 40 339.2 40 353C40 366.8 51.2 378 65 378C78.8 378 90 366.8 90 353C90 339.2 78.8 328 65 328ZM65 364.25C58.775 364.25 53.75 359.225 53.75 353C53.75 346.775 58.775 341.75 65 341.75C71.225 341.75 76.25 346.775 76.25 353C76.25 359.225 71.225 364.25 65 364.25ZM65 350.5C63.625 350.5 62.5 351.625 62.5 353C62.5 354.375 63.625 355.5 65 355.5C66.375 355.5 67.5 354.375 67.5 353C67.5 351.625 66.375 350.5 65 350.5Z" fill="black" fill-opacity="0.32"/>
<path d="M521 328C507.2 328 496 339.2 496 353C496 366.8 507.2 378 521 378C534.8 378 546 366.8 546 353C546 339.2 534.8 328 521 328ZM521 364.25C514.775 364.25 509.75 359.225 509.75 353C509.75 346.775 514.775 341.75 521 341.75C527.225 341.75 532.25 346.775 532.25 353C532.25 359.225 527.225 364.25 521 364.25ZM521 350.5C519.625 350.5 518.5 351.625 518.5 353C518.5 354.375 519.625 355.5 521 355.5C522.375 355.5 523.5 354.375 523.5 353C523.5 351.625 522.375 350.5 521 350.5Z" fill="black" fill-opacity="0.32"/>
<path d="M293 328C279.2 328 268 339.2 268 353C268 366.8 279.2 378 293 378C306.8 378 318 366.8 318 353C318 339.2 306.8 328 293 328ZM293 364.25C286.775 364.25 281.75 359.225 281.75 353C281.75 346.775 286.775 341.75 293 341.75C299.225 341.75 304.25 346.775 304.25 353C304.25 359.225 299.225 364.25 293 364.25ZM293 350.5C291.625 350.5 290.5 351.625 290.5 353C290.5 354.375 291.625 355.5 293 355.5C294.375 355.5 295.5 354.375 295.5 353C295.5 351.625 294.375 350.5 293 350.5Z" fill="black" fill-opacity="0.32"/>
<path d="M749 328C735.2 328 724 339.2 724 353C724 366.8 735.2 378 749 378C762.8 378 774 366.8 774 353C774 339.2 762.8 328 749 328ZM749 364.25C742.775 364.25 737.75 359.225 737.75 353C737.75 346.775 742.775 341.75 749 341.75C755.225 341.75 760.25 346.775 760.25 353C760.25 359.225 755.225 364.25 749 364.25ZM749 350.5C747.625 350.5 746.5 351.625 746.5 353C746.5 354.375 747.625 355.5 749 355.5C750.375 355.5 751.5 354.375 751.5 353C751.5 351.625 750.375 350.5 749 350.5Z" fill="black" fill-opacity="0.32"/>
<path d="M179 328C165.2 328 154 339.2 154 353C154 366.8 165.2 378 179 378C192.8 378 204 366.8 204 353C204 339.2 192.8 328 179 328ZM179 364.25C172.775 364.25 167.75 359.225 167.75 353C167.75 346.775 172.775 341.75 179 341.75C185.225 341.75 190.25 346.775 190.25 353C190.25 359.225 185.225 364.25 179 364.25ZM179 350.5C177.625 350.5 176.5 351.625 176.5 353C176.5 354.375 177.625 355.5 179 355.5C180.375 355.5 181.5 354.375 181.5 353C181.5 351.625 180.375 350.5 179 350.5Z" fill="black" fill-opacity="0.24"/>
<path d="M635 328C621.2 328 610 339.2 610 353C610 366.8 621.2 378 635 378C648.8 378 660 366.8 660 353C660 339.2 648.8 328 635 328ZM635 364.25C628.775 364.25 623.75 359.225 623.75 353C623.75 346.775 628.775 341.75 635 341.75C641.225 341.75 646.25 346.775 646.25 353C646.25 359.225 641.225 364.25 635 364.25ZM635 350.5C633.625 350.5 632.5 351.625 632.5 353C632.5 354.375 633.625 355.5 635 355.5C636.375 355.5 637.5 354.375 637.5 353C637.5 351.625 636.375 350.5 635 350.5Z" fill="black" fill-opacity="0.24"/>
<path d="M407 328C393.2 328 382 339.2 382 353C382 366.8 393.2 378 407 378C420.8 378 432 366.8 432 353C432 339.2 420.8 328 407 328ZM407 364.25C400.775 364.25 395.75 359.225 395.75 353C395.75 346.775 400.775 341.75 407 341.75C413.225 341.75 418.25 346.775 418.25 353C418.25 359.225 413.225 364.25 407 364.25ZM407 350.5C405.625 350.5 404.5 351.625 404.5 353C404.5 354.375 405.625 355.5 407 355.5C408.375 355.5 409.5 354.375 409.5 353C409.5 351.625 408.375 350.5 407 350.5Z" fill="black" fill-opacity="0.24"/>
<path d="M863 328C849.2 328 838 339.2 838 353C838 366.8 849.2 378 863 378C876.8 378 888 366.8 888 353C888 339.2 876.8 328 863 328ZM863 364.25C856.775 364.25 851.75 359.225 851.75 353C851.75 346.775 856.775 341.75 863 341.75C869.225 341.75 874.25 346.775 874.25 353C874.25 359.225 869.225 364.25 863 364.25ZM863 350.5C861.625 350.5 860.5 351.625 860.5 353C860.5 354.375 861.625 355.5 863 355.5C864.375 355.5 865.5 354.375 865.5 353C865.5 351.625 864.375 350.5 863 350.5Z" fill="black" fill-opacity="0.24"/>
<path d="M65 164C51.2 164 40 175.2 40 189C40 202.8 51.2 214 65 214C78.8 214 90 202.8 90 189C90 175.2 78.8 164 65 164ZM65 200.25C58.775 200.25 53.75 195.225 53.75 189C53.75 182.775 58.775 177.75 65 177.75C71.225 177.75 76.25 182.775 76.25 189C76.25 195.225 71.225 200.25 65 200.25ZM65 186.5C63.625 186.5 62.5 187.625 62.5 189C62.5 190.375 63.625 191.5 65 191.5C66.375 191.5 67.5 190.375 67.5 189C67.5 187.625 66.375 186.5 65 186.5Z" fill="black" fill-opacity="0.32"/>
<path d="M521 164C507.2 164 496 175.2 496 189C496 202.8 507.2 214 521 214C534.8 214 546 202.8 546 189C546 175.2 534.8 164 521 164ZM521 200.25C514.775 200.25 509.75 195.225 509.75 189C509.75 182.775 514.775 177.75 521 177.75C527.225 177.75 532.25 182.775 532.25 189C532.25 195.225 527.225 200.25 521 200.25ZM521 186.5C519.625 186.5 518.5 187.625 518.5 189C518.5 190.375 519.625 191.5 521 191.5C522.375 191.5 523.5 190.375 523.5 189C523.5 187.625 522.375 186.5 521 186.5Z" fill="black" fill-opacity="0.32"/>
<path d="M293 164C279.2 164 268 175.2 268 189C268 202.8 279.2 214 293 214C306.8 214 318 202.8 318 189C318 175.2 306.8 164 293 164ZM293 200.25C286.775 200.25 281.75 195.225 281.75 189C281.75 182.775 286.775 177.75 293 177.75C299.225 177.75 304.25 182.775 304.25 189C304.25 195.225 299.225 200.25 293 200.25ZM293 186.5C291.625 186.5 290.5 187.625 290.5 189C290.5 190.375 291.625 191.5 293 191.5C294.375 191.5 295.5 190.375 295.5 189C295.5 187.625 294.375 186.5 293 186.5Z" fill="black" fill-opacity="0.32"/>
<path d="M749 164C735.2 164 724 175.2 724 189C724 202.8 735.2 214 749 214C762.8 214 774 202.8 774 189C774 175.2 762.8 164 749 164ZM749 200.25C742.775 200.25 737.75 195.225 737.75 189C737.75 182.775 742.775 177.75 749 177.75C755.225 177.75 760.25 182.775 760.25 189C760.25 195.225 755.225 200.25 749 200.25ZM749 186.5C747.625 186.5 746.5 187.625 746.5 189C746.5 190.375 747.625 191.5 749 191.5C750.375 191.5 751.5 190.375 751.5 189C751.5 187.625 750.375 186.5 749 186.5Z" fill="black" fill-opacity="0.32"/>
<path d="M179 164C165.2 164 154 175.2 154 189C154 202.8 165.2 214 179 214C192.8 214 204 202.8 204 189C204 175.2 192.8 164 179 164ZM179 200.25C172.775 200.25 167.75 195.225 167.75 189C167.75 182.775 172.775 177.75 179 177.75C185.225 177.75 190.25 182.775 190.25 189C190.25 195.225 185.225 200.25 179 200.25ZM179 186.5C177.625 186.5 176.5 187.625 176.5 189C176.5 190.375 177.625 191.5 179 191.5C180.375 191.5 181.5 190.375 181.5 189C181.5 187.625 180.375 186.5 179 186.5Z" fill="black" fill-opacity="0.24"/>
<path d="M635 164C621.2 164 610 175.2 610 189C610 202.8 621.2 214 635 214C648.8 214 660 202.8 660 189C660 175.2 648.8 164 635 164ZM635 200.25C628.775 200.25 623.75 195.225 623.75 189C623.75 182.775 628.775 177.75 635 177.75C641.225 177.75 646.25 182.775 646.25 189C646.25 195.225 641.225 200.25 635 200.25ZM635 186.5C633.625 186.5 632.5 187.625 632.5 189C632.5 190.375 633.625 191.5 635 191.5C636.375 191.5 637.5 190.375 637.5 189C637.5 187.625 636.375 186.5 635 186.5Z" fill="black" fill-opacity="0.24"/>
<path d="M407 164C393.2 164 382 175.2 382 189C382 202.8 393.2 214 407 214C420.8 214 432 202.8 432 189C432 175.2 420.8 164 407 164ZM407 200.25C400.775 200.25 395.75 195.225 395.75 189C395.75 182.775 400.775 177.75 407 177.75C413.225 177.75 418.25 182.775 418.25 189C418.25 195.225 413.225 200.25 407 200.25ZM407 186.5C405.625 186.5 404.5 187.625 404.5 189C404.5 190.375 405.625 191.5 407 191.5C408.375 191.5 409.5 190.375 409.5 189C409.5 187.625 408.375 186.5 407 186.5Z" fill="black" fill-opacity="0.24"/>
<path d="M863 164C849.2 164 838 175.2 838 189C838 202.8 849.2 214 863 214C876.8 214 888 202.8 888 189C888 175.2 876.8 164 863 164ZM863 200.25C856.775 200.25 851.75 195.225 851.75 189C851.75 182.775 856.775 177.75 863 177.75C869.225 177.75 874.25 182.775 874.25 189C874.25 195.225 869.225 200.25 863 200.25ZM863 186.5C861.625 186.5 860.5 187.625 860.5 189C860.5 190.375 861.625 191.5 863 191.5C864.375 191.5 865.5 190.375 865.5 189C865.5 187.625 864.375 186.5 863 186.5Z" fill="black" fill-opacity="0.24"/>
<path d="M65 492C51.2 492 40 503.2 40 517C40 530.8 51.2 542 65 542C78.8 542 90 530.8 90 517C90 503.2 78.8 492 65 492ZM65 528.25C58.775 528.25 53.75 523.225 53.75 517C53.75 510.775 58.775 505.75 65 505.75C71.225 505.75 76.25 510.775 76.25 517C76.25 523.225 71.225 528.25 65 528.25ZM65 514.5C63.625 514.5 62.5 515.625 62.5 517C62.5 518.375 63.625 519.5 65 519.5C66.375 519.5 67.5 518.375 67.5 517C67.5 515.625 66.375 514.5 65 514.5Z" fill="black" fill-opacity="0.32"/>
<path d="M521 492C507.2 492 496 503.2 496 517C496 530.8 507.2 542 521 542C534.8 542 546 530.8 546 517C546 503.2 534.8 492 521 492ZM521 528.25C514.775 528.25 509.75 523.225 509.75 517C509.75 510.775 514.775 505.75 521 505.75C527.225 505.75 532.25 510.775 532.25 517C532.25 523.225 527.225 528.25 521 528.25ZM521 514.5C519.625 514.5 518.5 515.625 518.5 517C518.5 518.375 519.625 519.5 521 519.5C522.375 519.5 523.5 518.375 523.5 517C523.5 515.625 522.375 514.5 521 514.5Z" fill="black" fill-opacity="0.32"/>
<path d="M293 492C279.2 492 268 503.2 268 517C268 530.8 279.2 542 293 542C306.8 542 318 530.8 318 517C318 503.2 306.8 492 293 492ZM293 528.25C286.775 528.25 281.75 523.225 281.75 517C281.75 510.775 286.775 505.75 293 505.75C299.225 505.75 304.25 510.775 304.25 517C304.25 523.225 299.225 528.25 293 528.25ZM293 514.5C291.625 514.5 290.5 515.625 290.5 517C290.5 518.375 291.625 519.5 293 519.5C294.375 519.5 295.5 518.375 295.5 517C295.5 515.625 294.375 514.5 293 514.5Z" fill="black" fill-opacity="0.32"/>
<path d="M749 492C735.2 492 724 503.2 724 517C724 530.8 735.2 542 749 542C762.8 542 774 530.8 774 517C774 503.2 762.8 492 749 492ZM749 528.25C742.775 528.25 737.75 523.225 737.75 517C737.75 510.775 742.775 505.75 749 505.75C755.225 505.75 760.25 510.775 760.25 517C760.25 523.225 755.225 528.25 749 528.25ZM749 514.5C747.625 514.5 746.5 515.625 746.5 517C746.5 518.375 747.625 519.5 749 519.5C750.375 519.5 751.5 518.375 751.5 517C751.5 515.625 750.375 514.5 749 514.5Z" fill="black" fill-opacity="0.32"/>
<path d="M179 492C165.2 492 154 503.2 154 517C154 530.8 165.2 542 179 542C192.8 542 204 530.8 204 517C204 503.2 192.8 492 179 492ZM179 528.25C172.775 528.25 167.75 523.225 167.75 517C167.75 510.775 172.775 505.75 179 505.75C185.225 505.75 190.25 510.775 190.25 517C190.25 523.225 185.225 528.25 179 528.25ZM179 514.5C177.625 514.5 176.5 515.625 176.5 517C176.5 518.375 177.625 519.5 179 519.5C180.375 519.5 181.5 518.375 181.5 517C181.5 515.625 180.375 514.5 179 514.5Z" fill="black" fill-opacity="0.24"/>
<path d="M635 492C621.2 492 610 503.2 610 517C610 530.8 621.2 542 635 542C648.8 542 660 530.8 660 517C660 503.2 648.8 492 635 492ZM635 528.25C628.775 528.25 623.75 523.225 623.75 517C623.75 510.775 628.775 505.75 635 505.75C641.225 505.75 646.25 510.775 646.25 517C646.25 523.225 641.225 528.25 635 528.25ZM635 514.5C633.625 514.5 632.5 515.625 632.5 517C632.5 518.375 633.625 519.5 635 519.5C636.375 519.5 637.5 518.375 637.5 517C637.5 515.625 636.375 514.5 635 514.5Z" fill="black" fill-opacity="0.24"/>
<path d="M407 492C393.2 492 382 503.2 382 517C382 530.8 393.2 542 407 542C420.8 542 432 530.8 432 517C432 503.2 420.8 492 407 492ZM407 528.25C400.775 528.25 395.75 523.225 395.75 517C395.75 510.775 400.775 505.75 407 505.75C413.225 505.75 418.25 510.775 418.25 517C418.25 523.225 413.225 528.25 407 528.25ZM407 514.5C405.625 514.5 404.5 515.625 404.5 517C404.5 518.375 405.625 519.5 407 519.5C408.375 519.5 409.5 518.375 409.5 517C409.5 515.625 408.375 514.5 407 514.5Z" fill="black" fill-opacity="0.24"/>
<path d="M863 492C849.2 492 838 503.2 838 517C838 530.8 849.2 542 863 542C876.8 542 888 530.8 888 517C888 503.2 876.8 492 863 492ZM863 528.25C856.775 528.25 851.75 523.225 851.75 517C851.75 510.775 856.775 505.75 863 505.75C869.225 505.75 874.25 510.775 874.25 517C874.25 523.225 869.225 528.25 863 528.25ZM863 514.5C861.625 514.5 860.5 515.625 860.5 517C860.5 518.375 861.625 519.5 863 519.5C864.375 519.5 865.5 518.375 865.5 517C865.5 515.625 864.375 514.5 863 514.5Z" fill="black" fill-opacity="0.24"/>
<path d="M25 82C11.2 82 0 93.2 0 107C0 120.8 11.2 132 25 132C38.8 132 50 120.8 50 107C50 93.2 38.8 82 25 82ZM25 118.25C18.775 118.25 13.75 113.225 13.75 107C13.75 100.775 18.775 95.75 25 95.75C31.225 95.75 36.25 100.775 36.25 107C36.25 113.225 31.225 118.25 25 118.25ZM25 104.5C23.625 104.5 22.5 105.625 22.5 107C22.5 108.375 23.625 109.5 25 109.5C26.375 109.5 27.5 108.375 27.5 107C27.5 105.625 26.375 104.5 25 104.5Z" fill="black" fill-opacity="0.23"/>
<path d="M481 82C467.2 82 456 93.2 456 107C456 120.8 467.2 132 481 132C494.8 132 506 120.8 506 107C506 93.2 494.8 82 481 82ZM481 118.25C474.775 118.25 469.75 113.225 469.75 107C469.75 100.775 474.775 95.75 481 95.75C487.225 95.75 492.25 100.775 492.25 107C492.25 113.225 487.225 118.25 481 118.25ZM481 104.5C479.625 104.5 478.5 105.625 478.5 107C478.5 108.375 479.625 109.5 481 109.5C482.375 109.5 483.5 108.375 483.5 107C483.5 105.625 482.375 104.5 481 104.5Z" fill="black" fill-opacity="0.23"/>
<path d="M253 82C239.2 82 228 93.2 228 107C228 120.8 239.2 132 253 132C266.8 132 278 120.8 278 107C278 93.2 266.8 82 253 82ZM253 118.25C246.775 118.25 241.75 113.225 241.75 107C241.75 100.775 246.775 95.75 253 95.75C259.225 95.75 264.25 100.775 264.25 107C264.25 113.225 259.225 118.25 253 118.25ZM253 104.5C251.625 104.5 250.5 105.625 250.5 107C250.5 108.375 251.625 109.5 253 109.5C254.375 109.5 255.5 108.375 255.5 107C255.5 105.625 254.375 104.5 253 104.5Z" fill="black" fill-opacity="0.23"/>
<path d="M709 82C695.2 82 684 93.2 684 107C684 120.8 695.2 132 709 132C722.8 132 734 120.8 734 107C734 93.2 722.8 82 709 82ZM709 118.25C702.775 118.25 697.75 113.225 697.75 107C697.75 100.775 702.775 95.75 709 95.75C715.225 95.75 720.25 100.775 720.25 107C720.25 113.225 715.225 118.25 709 118.25ZM709 104.5C707.625 104.5 706.5 105.625 706.5 107C706.5 108.375 707.625 109.5 709 109.5C710.375 109.5 711.5 108.375 711.5 107C711.5 105.625 710.375 104.5 709 104.5Z" fill="black" fill-opacity="0.23"/>
<path d="M139 82C125.2 82 114 93.2 114 107C114 120.8 125.2 132 139 132C152.8 132 164 120.8 164 107C164 93.2 152.8 82 139 82ZM139 118.25C132.775 118.25 127.75 113.225 127.75 107C127.75 100.775 132.775 95.75 139 95.75C145.225 95.75 150.25 100.775 150.25 107C150.25 113.225 145.225 118.25 139 118.25ZM139 104.5C137.625 104.5 136.5 105.625 136.5 107C136.5 108.375 137.625 109.5 139 109.5C140.375 109.5 141.5 108.375 141.5 107C141.5 105.625 140.375 104.5 139 104.5Z" fill="black" fill-opacity="0.32"/>
<path d="M595 82C581.2 82 570 93.2 570 107C570 120.8 581.2 132 595 132C608.8 132 620 120.8 620 107C620 93.2 608.8 82 595 82ZM595 118.25C588.775 118.25 583.75 113.225 583.75 107C583.75 100.775 588.775 95.75 595 95.75C601.225 95.75 606.25 100.775 606.25 107C606.25 113.225 601.225 118.25 595 118.25ZM595 104.5C593.625 104.5 592.5 105.625 592.5 107C592.5 108.375 593.625 109.5 595 109.5C596.375 109.5 597.5 108.375 597.5 107C597.5 105.625 596.375 104.5 595 104.5Z" fill="black" fill-opacity="0.32"/>
<path d="M367 82C353.2 82 342 93.2 342 107C342 120.8 353.2 132 367 132C380.8 132 392 120.8 392 107C392 93.2 380.8 82 367 82ZM367 118.25C360.775 118.25 355.75 113.225 355.75 107C355.75 100.775 360.775 95.75 367 95.75C373.225 95.75 378.25 100.775 378.25 107C378.25 113.225 373.225 118.25 367 118.25ZM367 104.5C365.625 104.5 364.5 105.625 364.5 107C364.5 108.375 365.625 109.5 367 109.5C368.375 109.5 369.5 108.375 369.5 107C369.5 105.625 368.375 104.5 367 104.5Z" fill="black" fill-opacity="0.32"/>
<path d="M823 82C809.2 82 798 93.2 798 107C798 120.8 809.2 132 823 132C836.8 132 848 120.8 848 107C848 93.2 836.8 82 823 82ZM823 118.25C816.775 118.25 811.75 113.225 811.75 107C811.75 100.775 816.775 95.75 823 95.75C829.225 95.75 834.25 100.775 834.25 107C834.25 113.225 829.225 118.25 823 118.25ZM823 104.5C821.625 104.5 820.5 105.625 820.5 107C820.5 108.375 821.625 109.5 823 109.5C824.375 109.5 825.5 108.375 825.5 107C825.5 105.625 824.375 104.5 823 104.5Z" fill="black" fill-opacity="0.32"/>
<path d="M25 410C11.2 410 0 421.2 0 435C0 448.8 11.2 460 25 460C38.8 460 50 448.8 50 435C50 421.2 38.8 410 25 410ZM25 446.25C18.775 446.25 13.75 441.225 13.75 435C13.75 428.775 18.775 423.75 25 423.75C31.225 423.75 36.25 428.775 36.25 435C36.25 441.225 31.225 446.25 25 446.25ZM25 432.5C23.625 432.5 22.5 433.625 22.5 435C22.5 436.375 23.625 437.5 25 437.5C26.375 437.5 27.5 436.375 27.5 435C27.5 433.625 26.375 432.5 25 432.5Z" fill="black" fill-opacity="0.23"/>
<path d="M481 410C467.2 410 456 421.2 456 435C456 448.8 467.2 460 481 460C494.8 460 506 448.8 506 435C506 421.2 494.8 410 481 410ZM481 446.25C474.775 446.25 469.75 441.225 469.75 435C469.75 428.775 474.775 423.75 481 423.75C487.225 423.75 492.25 428.775 492.25 435C492.25 441.225 487.225 446.25 481 446.25ZM481 432.5C479.625 432.5 478.5 433.625 478.5 435C478.5 436.375 479.625 437.5 481 437.5C482.375 437.5 483.5 436.375 483.5 435C483.5 433.625 482.375 432.5 481 432.5Z" fill="black" fill-opacity="0.23"/>
<path d="M253 410C239.2 410 228 421.2 228 435C228 448.8 239.2 460 253 460C266.8 460 278 448.8 278 435C278 421.2 266.8 410 253 410ZM253 446.25C246.775 446.25 241.75 441.225 241.75 435C241.75 428.775 246.775 423.75 253 423.75C259.225 423.75 264.25 428.775 264.25 435C264.25 441.225 259.225 446.25 253 446.25ZM253 432.5C251.625 432.5 250.5 433.625 250.5 435C250.5 436.375 251.625 437.5 253 437.5C254.375 437.5 255.5 436.375 255.5 435C255.5 433.625 254.375 432.5 253 432.5Z" fill="black" fill-opacity="0.23"/>
<path d="M709 410C695.2 410 684 421.2 684 435C684 448.8 695.2 460 709 460C722.8 460 734 448.8 734 435C734 421.2 722.8 410 709 410ZM709 446.25C702.775 446.25 697.75 441.225 697.75 435C697.75 428.775 702.775 423.75 709 423.75C715.225 423.75 720.25 428.775 720.25 435C720.25 441.225 715.225 446.25 709 446.25ZM709 432.5C707.625 432.5 706.5 433.625 706.5 435C706.5 436.375 707.625 437.5 709 437.5C710.375 437.5 711.5 436.375 711.5 435C711.5 433.625 710.375 432.5 709 432.5Z" fill="black" fill-opacity="0.23"/>
<path d="M139 410C125.2 410 114 421.2 114 435C114 448.8 125.2 460 139 460C152.8 460 164 448.8 164 435C164 421.2 152.8 410 139 410ZM139 446.25C132.775 446.25 127.75 441.225 127.75 435C127.75 428.775 132.775 423.75 139 423.75C145.225 423.75 150.25 428.775 150.25 435C150.25 441.225 145.225 446.25 139 446.25ZM139 432.5C137.625 432.5 136.5 433.625 136.5 435C136.5 436.375 137.625 437.5 139 437.5C140.375 437.5 141.5 436.375 141.5 435C141.5 433.625 140.375 432.5 139 432.5Z" fill="black" fill-opacity="0.32"/>
<path d="M595 410C581.2 410 570 421.2 570 435C570 448.8 581.2 460 595 460C608.8 460 620 448.8 620 435C620 421.2 608.8 410 595 410ZM595 446.25C588.775 446.25 583.75 441.225 583.75 435C583.75 428.775 588.775 423.75 595 423.75C601.225 423.75 606.25 428.775 606.25 435C606.25 441.225 601.225 446.25 595 446.25ZM595 432.5C593.625 432.5 592.5 433.625 592.5 435C592.5 436.375 593.625 437.5 595 437.5C596.375 437.5 597.5 436.375 597.5 435C597.5 433.625 596.375 432.5 595 432.5Z" fill="black" fill-opacity="0.32"/>
<path d="M367 410C353.2 410 342 421.2 342 435C342 448.8 353.2 460 367 460C380.8 460 392 448.8 392 435C392 421.2 380.8 410 367 410ZM367 446.25C360.775 446.25 355.75 441.225 355.75 435C355.75 428.775 360.775 423.75 367 423.75C373.225 423.75 378.25 428.775 378.25 435C378.25 441.225 373.225 446.25 367 446.25ZM367 432.5C365.625 432.5 364.5 433.625 364.5 435C364.5 436.375 365.625 437.5 367 437.5C368.375 437.5 369.5 436.375 369.5 435C369.5 433.625 368.375 432.5 367 432.5Z" fill="black" fill-opacity="0.32"/>
<path d="M823 410C809.2 410 798 421.2 798 435C798 448.8 809.2 460 823 460C836.8 460 848 448.8 848 435C848 421.2 836.8 410 823 410ZM823 446.25C816.775 446.25 811.75 441.225 811.75 435C811.75 428.775 816.775 423.75 823 423.75C829.225 423.75 834.25 428.775 834.25 435C834.25 441.225 829.225 446.25 823 446.25ZM823 432.5C821.625 432.5 820.5 433.625 820.5 435C820.5 436.375 821.625 437.5 823 437.5C824.375 437.5 825.5 436.375 825.5 435C825.5 433.625 824.375 432.5 823 432.5Z" fill="black" fill-opacity="0.32"/>
<path d="M25 246C11.2 246 0 257.2 0 271C0 284.8 11.2 296 25 296C38.8 296 50 284.8 50 271C50 257.2 38.8 246 25 246ZM25 282.25C18.775 282.25 13.75 277.225 13.75 271C13.75 264.775 18.775 259.75 25 259.75C31.225 259.75 36.25 264.775 36.25 271C36.25 277.225 31.225 282.25 25 282.25ZM25 268.5C23.625 268.5 22.5 269.625 22.5 271C22.5 272.375 23.625 273.5 25 273.5C26.375 273.5 27.5 272.375 27.5 271C27.5 269.625 26.375 268.5 25 268.5Z" fill="black" fill-opacity="0.23"/>
<path d="M481 246C467.2 246 456 257.2 456 271C456 284.8 467.2 296 481 296C494.8 296 506 284.8 506 271C506 257.2 494.8 246 481 246ZM481 282.25C474.775 282.25 469.75 277.225 469.75 271C469.75 264.775 474.775 259.75 481 259.75C487.225 259.75 492.25 264.775 492.25 271C492.25 277.225 487.225 282.25 481 282.25ZM481 268.5C479.625 268.5 478.5 269.625 478.5 271C478.5 272.375 479.625 273.5 481 273.5C482.375 273.5 483.5 272.375 483.5 271C483.5 269.625 482.375 268.5 481 268.5Z" fill="black" fill-opacity="0.23"/>
<path d="M253 246C239.2 246 228 257.2 228 271C228 284.8 239.2 296 253 296C266.8 296 278 284.8 278 271C278 257.2 266.8 246 253 246ZM253 282.25C246.775 282.25 241.75 277.225 241.75 271C241.75 264.775 246.775 259.75 253 259.75C259.225 259.75 264.25 264.775 264.25 271C264.25 277.225 259.225 282.25 253 282.25ZM253 268.5C251.625 268.5 250.5 269.625 250.5 271C250.5 272.375 251.625 273.5 253 273.5C254.375 273.5 255.5 272.375 255.5 271C255.5 269.625 254.375 268.5 253 268.5Z" fill="black" fill-opacity="0.23"/>
<path d="M709 246C695.2 246 684 257.2 684 271C684 284.8 695.2 296 709 296C722.8 296 734 284.8 734 271C734 257.2 722.8 246 709 246ZM709 282.25C702.775 282.25 697.75 277.225 697.75 271C697.75 264.775 702.775 259.75 709 259.75C715.225 259.75 720.25 264.775 720.25 271C720.25 277.225 715.225 282.25 709 282.25ZM709 268.5C707.625 268.5 706.5 269.625 706.5 271C706.5 272.375 707.625 273.5 709 273.5C710.375 273.5 711.5 272.375 711.5 271C711.5 269.625 710.375 268.5 709 268.5Z" fill="black" fill-opacity="0.23"/>
<path d="M139 246C125.2 246 114 257.2 114 271C114 284.8 125.2 296 139 296C152.8 296 164 284.8 164 271C164 257.2 152.8 246 139 246ZM139 282.25C132.775 282.25 127.75 277.225 127.75 271C127.75 264.775 132.775 259.75 139 259.75C145.225 259.75 150.25 264.775 150.25 271C150.25 277.225 145.225 282.25 139 282.25ZM139 268.5C137.625 268.5 136.5 269.625 136.5 271C136.5 272.375 137.625 273.5 139 273.5C140.375 273.5 141.5 272.375 141.5 271C141.5 269.625 140.375 268.5 139 268.5Z" fill="black" fill-opacity="0.32"/>
<path d="M595 246C581.2 246 570 257.2 570 271C570 284.8 581.2 296 595 296C608.8 296 620 284.8 620 271C620 257.2 608.8 246 595 246ZM595 282.25C588.775 282.25 583.75 277.225 583.75 271C583.75 264.775 588.775 259.75 595 259.75C601.225 259.75 606.25 264.775 606.25 271C606.25 277.225 601.225 282.25 595 282.25ZM595 268.5C593.625 268.5 592.5 269.625 592.5 271C592.5 272.375 593.625 273.5 595 273.5C596.375 273.5 597.5 272.375 597.5 271C597.5 269.625 596.375 268.5 595 268.5Z" fill="black" fill-opacity="0.32"/>
<path d="M367 246C353.2 246 342 257.2 342 271C342 284.8 353.2 296 367 296C380.8 296 392 284.8 392 271C392 257.2 380.8 246 367 246ZM367 282.25C360.775 282.25 355.75 277.225 355.75 271C355.75 264.775 360.775 259.75 367 259.75C373.225 259.75 378.25 264.775 378.25 271C378.25 277.225 373.225 282.25 367 282.25ZM367 268.5C365.625 268.5 364.5 269.625 364.5 271C364.5 272.375 365.625 273.5 367 273.5C368.375 273.5 369.5 272.375 369.5 271C369.5 269.625 368.375 268.5 367 268.5Z" fill="black" fill-opacity="0.32"/>
<path d="M823 246C809.2 246 798 257.2 798 271C798 284.8 809.2 296 823 296C836.8 296 848 284.8 848 271C848 257.2 836.8 246 823 246ZM823 282.25C816.775 282.25 811.75 277.225 811.75 271C811.75 264.775 816.775 259.75 823 259.75C829.225 259.75 834.25 264.775 834.25 271C834.25 277.225 829.225 282.25 823 282.25ZM823 268.5C821.625 268.5 820.5 269.625 820.5 271C820.5 272.375 821.625 273.5 823 273.5C824.375 273.5 825.5 272.375 825.5 271C825.5 269.625 824.375 268.5 823 268.5Z" fill="black" fill-opacity="0.32"/>
<path d="M25 574C11.2 574 0 585.2 0 599C0 612.8 11.2 624 25 624C38.8 624 50 612.8 50 599C50 585.2 38.8 574 25 574ZM25 610.25C18.775 610.25 13.75 605.225 13.75 599C13.75 592.775 18.775 587.75 25 587.75C31.225 587.75 36.25 592.775 36.25 599C36.25 605.225 31.225 610.25 25 610.25ZM25 596.5C23.625 596.5 22.5 597.625 22.5 599C22.5 600.375 23.625 601.5 25 601.5C26.375 601.5 27.5 600.375 27.5 599C27.5 597.625 26.375 596.5 25 596.5Z" fill="black" fill-opacity="0.23"/>
<path d="M481 574C467.2 574 456 585.2 456 599C456 612.8 467.2 624 481 624C494.8 624 506 612.8 506 599C506 585.2 494.8 574 481 574ZM481 610.25C474.775 610.25 469.75 605.225 469.75 599C469.75 592.775 474.775 587.75 481 587.75C487.225 587.75 492.25 592.775 492.25 599C492.25 605.225 487.225 610.25 481 610.25ZM481 596.5C479.625 596.5 478.5 597.625 478.5 599C478.5 600.375 479.625 601.5 481 601.5C482.375 601.5 483.5 600.375 483.5 599C483.5 597.625 482.375 596.5 481 596.5Z" fill="black" fill-opacity="0.23"/>
<path d="M253 574C239.2 574 228 585.2 228 599C228 612.8 239.2 624 253 624C266.8 624 278 612.8 278 599C278 585.2 266.8 574 253 574ZM253 610.25C246.775 610.25 241.75 605.225 241.75 599C241.75 592.775 246.775 587.75 253 587.75C259.225 587.75 264.25 592.775 264.25 599C264.25 605.225 259.225 610.25 253 610.25ZM253 596.5C251.625 596.5 250.5 597.625 250.5 599C250.5 600.375 251.625 601.5 253 601.5C254.375 601.5 255.5 600.375 255.5 599C255.5 597.625 254.375 596.5 253 596.5Z" fill="black" fill-opacity="0.23"/>
<path d="M709 574C695.2 574 684 585.2 684 599C684 612.8 695.2 624 709 624C722.8 624 734 612.8 734 599C734 585.2 722.8 574 709 574ZM709 610.25C702.775 610.25 697.75 605.225 697.75 599C697.75 592.775 702.775 587.75 709 587.75C715.225 587.75 720.25 592.775 720.25 599C720.25 605.225 715.225 610.25 709 610.25ZM709 596.5C707.625 596.5 706.5 597.625 706.5 599C706.5 600.375 707.625 601.5 709 601.5C710.375 601.5 711.5 600.375 711.5 599C711.5 597.625 710.375 596.5 709 596.5Z" fill="black" fill-opacity="0.23"/>
<path d="M139 574C125.2 574 114 585.2 114 599C114 612.8 125.2 624 139 624C152.8 624 164 612.8 164 599C164 585.2 152.8 574 139 574ZM139 610.25C132.775 610.25 127.75 605.225 127.75 599C127.75 592.775 132.775 587.75 139 587.75C145.225 587.75 150.25 592.775 150.25 599C150.25 605.225 145.225 610.25 139 610.25ZM139 596.5C137.625 596.5 136.5 597.625 136.5 599C136.5 600.375 137.625 601.5 139 601.5C140.375 601.5 141.5 600.375 141.5 599C141.5 597.625 140.375 596.5 139 596.5Z" fill="black" fill-opacity="0.32"/>
<path d="M595 574C581.2 574 570 585.2 570 599C570 612.8 581.2 624 595 624C608.8 624 620 612.8 620 599C620 585.2 608.8 574 595 574ZM595 610.25C588.775 610.25 583.75 605.225 583.75 599C583.75 592.775 588.775 587.75 595 587.75C601.225 587.75 606.25 592.775 606.25 599C606.25 605.225 601.225 610.25 595 610.25ZM595 596.5C593.625 596.5 592.5 597.625 592.5 599C592.5 600.375 593.625 601.5 595 601.5C596.375 601.5 597.5 600.375 597.5 599C597.5 597.625 596.375 596.5 595 596.5Z" fill="black" fill-opacity="0.32"/>
<path d="M367 574C353.2 574 342 585.2 342 599C342 612.8 353.2 624 367 624C380.8 624 392 612.8 392 599C392 585.2 380.8 574 367 574ZM367 610.25C360.775 610.25 355.75 605.225 355.75 599C355.75 592.775 360.775 587.75 367 587.75C373.225 587.75 378.25 592.775 378.25 599C378.25 605.225 373.225 610.25 367 610.25ZM367 596.5C365.625 596.5 364.5 597.625 364.5 599C364.5 600.375 365.625 601.5 367 601.5C368.375 601.5 369.5 600.375 369.5 599C369.5 597.625 368.375 596.5 367 596.5Z" fill="black" fill-opacity="0.32"/>
<path d="M823 574C809.2 574 798 585.2 798 599C798 612.8 809.2 624 823 624C836.8 624 848 612.8 848 599C848 585.2 836.8 574 823 574ZM823 610.25C816.775 610.25 811.75 605.225 811.75 599C811.75 592.775 816.775 587.75 823 587.75C829.225 587.75 834.25 592.775 834.25 599C834.25 605.225 829.225 610.25 823 610.25ZM823 596.5C821.625 596.5 820.5 597.625 820.5 599C820.5 600.375 821.625 601.5 823 601.5C824.375 601.5 825.5 600.375 825.5 599C825.5 597.625 824.375 596.5 823 596.5Z" fill="black" fill-opacity="0.32"/>
</svg>
